solid OpenSCAD_Model
  facet normal -1 0 0
    outer loop
      vertex 0 1.5 53
      vertex 0 8.05 58
      vertex 0 10 57
    endloop
  endfacet
  facet normal -1 0 0
    outer loop
      vertex 0 4 72.5
      vertex 0 0 73
      vertex 0 4 73
    endloop
  endfacet
  facet normal -1 0 0
    outer loop
      vertex 0 3.975 72.5
      vertex 0 0 73
      vertex 0 4 72.5
    endloop
  endfacet
  facet normal -1 0 0
    outer loop
      vertex 0 3.6 72.5
      vertex 0 0 73
      vertex 0 3.975 72.5
    endloop
  endfacet
  facet normal -1 0 0
    outer loop
      vertex 0 8.1 67
      vertex 0 8.05 66
      vertex 0 7.3 66
    endloop
  endfacet
  facet normal -1 0 0
    outer loop
      vertex 0 1.5 53
      vertex 0 12 56
      vertex 0 14 55
    endloop
  endfacet
  facet normal -1 0 0
    outer loop
      vertex 0 0.375 69
      vertex 0 0 73
      vertex 0 0.375 72.5
    endloop
  endfacet
  facet normal -1 0 0
    outer loop
      vertex 0 1.5 53
      vertex 0 10 57
      vertex 0 12 56
    endloop
  endfacet
  facet normal -1 0 0
    outer loop
      vertex 0 3 26
      vertex 0 18 33
      vertex 0 20 31
    endloop
  endfacet
  facet normal -1 0 0
    outer loop
      vertex 0 8.1 67
      vertex 0 7.3 66
      vertex 0 7 67
    endloop
  endfacet
  facet normal -1 0 0
    outer loop
      vertex 0 10 58
      vertex 0 10 57
      vertex 0 8.05 58
    endloop
  endfacet
  facet normal -1 0 0
    outer loop
      vertex 0 7 67.5
      vertex 0 7 67
      vertex 0 6 67.5
    endloop
  endfacet
  facet normal -1 0 0
    outer loop
      vertex 0 8.1 67
      vertex 0 8.1 66
      vertex 0 8.05 66
    endloop
  endfacet
  facet normal -1 0 0
    outer loop
      vertex 0 18 35
      vertex 0 18 33
      vertex 0 16 35
    endloop
  endfacet
  facet normal -1 0 0
    outer loop
      vertex 0 3 26
      vertex 0 1.5 37
      vertex 0 14.5 37
    endloop
  endfacet
  facet normal -1 0 0
    outer loop
      vertex 0 14 56
      vertex 0 14 55
      vertex 0 12 56
    endloop
  endfacet
  facet normal -1 0 0
    outer loop
      vertex 0 8.05 58
      vertex 0 7.3 66
      vertex 0 8.05 66
    endloop
  endfacet
  facet normal -1 0 0
    outer loop
      vertex 0 7.3 66
      vertex 0 8.05 58
      vertex 0 7.3 59
    endloop
  endfacet
  facet normal -1 0 0
    outer loop
      vertex 0 3 26
      vertex 0 20 31
      vertex 0 22 26
    endloop
  endfacet
  facet normal -1 0 0
    outer loop
      vertex 0 22.5 31
      vertex 0 22 26
      vertex 0 20 31
    endloop
  endfacet
  facet normal -1 0 0
    outer loop
      vertex 0 16 55
      vertex 0 14.5 53
      vertex 0 14 55
    endloop
  endfacet
  facet normal -1 0 0
    outer loop
      vertex 0 20 33
      vertex 0 20 31
      vertex 0 18 33
    endloop
  endfacet
  facet normal -1 0 0
    outer loop
      vertex 0 3 26
      vertex 0 16 35
      vertex 0 18 33
    endloop
  endfacet
  facet normal -1 0 0
    outer loop
      vertex 0 0.75 66
      vertex 0 7 67
      vertex 0 7.3 66
    endloop
  endfacet
  facet normal -1 0 0
    outer loop
      vertex 0 22.5 31
      vertex 0 22.5 29
      vertex 0 22 26
    endloop
  endfacet
  facet normal -1 0 0
    outer loop
      vertex 0 25 29
      vertex 0 25 0
      vertex 0 22.5 29
    endloop
  endfacet
  facet normal -1 0 0
    outer loop
      vertex 0 3.6 72.5
      vertex 0 3.975 69
      vertex 0 3.6 69
    endloop
  endfacet
  facet normal -1 0 0
    outer loop
      vertex 0 0.375 72.5
      vertex 0 0 73
      vertex 0 3.6 72.5
    endloop
  endfacet
  facet normal -1 0 0
    outer loop
      vertex 0 0.75 66
      vertex 0 3.6 69
      vertex 0 4 68.5
    endloop
  endfacet
  facet normal -1 0 0
    outer loop
      vertex 0 0 0
      vertex 0 0 73
      vertex 0 0.375 69
    endloop
  endfacet
  facet normal -1 0 0
    outer loop
      vertex 0 0.75 66
      vertex 0 4 68.5
      vertex 0 5 68
    endloop
  endfacet
  facet normal -1 0 0
    outer loop
      vertex 0 4 68.5
      vertex 0 3.6 69
      vertex 0 3.975 69
    endloop
  endfacet
  facet normal -1 0 0
    outer loop
      vertex 0 0.75 66
      vertex 0 5 68
      vertex 0 6 67.5
    endloop
  endfacet
  facet normal -1 0 0
    outer loop
      vertex 0 3.975 69
      vertex 0 3.6 72.5
      vertex 0 3.975 72.5
    endloop
  endfacet
  facet normal -1 0 0
    outer loop
      vertex 0 0 0
      vertex 0 0.375 69
      vertex 0 0.75 66
    endloop
  endfacet
  facet normal -1 0 0
    outer loop
      vertex 0 1.5 53
      vertex 0 7.3 59
      vertex 0 8.05 58
    endloop
  endfacet
  facet normal -1 0 0
    outer loop
      vertex 0 0 0
      vertex 0 0.75 66
      vertex 0 0.75 59
    endloop
  endfacet
  facet normal -1 0 0
    outer loop
      vertex 0 14.5 53
      vertex 0 16 35
      vertex 0 14.5 37
    endloop
  endfacet
  facet normal -1 0 0
    outer loop
      vertex 0 1.5 53
      vertex 0 14 55
      vertex 0 14.5 53
    endloop
  endfacet
  facet normal -1 0 0
    outer loop
      vertex 0 12 57
      vertex 0 12 56
      vertex 0 10 57
    endloop
  endfacet
  facet normal -1 0 0
    outer loop
      vertex 0 0 0
      vertex 0 0.75 59
      vertex 0 1.5 53
    endloop
  endfacet
  facet normal -1 0 0
    outer loop
      vertex 0 3 26
      vertex 0 14.5 37
      vertex 0 16 35
    endloop
  endfacet
  facet normal -1 0 0
    outer loop
      vertex 0 0 0
      vertex 0 1.5 53
      vertex 0 1.5 37
    endloop
  endfacet
  facet normal -1 0 0
    outer loop
      vertex 0 22 26
      vertex 0 25 0
      vertex 0 22 3
    endloop
  endfacet
  facet normal -1 0 0
    outer loop
      vertex 0 0.75 66
      vertex 0 6 67.5
      vertex 0 7 67
    endloop
  endfacet
  facet normal -1 0 0
    outer loop
      vertex 0 16 35
      vertex 0 14.5 53
      vertex 0 16 55
    endloop
  endfacet
  facet normal -1 0 0
    outer loop
      vertex 0 0 0
      vertex 0 1.5 37
      vertex 0 3 26
    endloop
  endfacet
  facet normal -1 0 0
    outer loop
      vertex 0 0 0
      vertex 0 3 26
      vertex 0 3 3
    endloop
  endfacet
  facet normal -1 0 0
    outer loop
      vertex 0 0 0
      vertex 0 3 3
      vertex 0 25 0
    endloop
  endfacet
  facet normal -1 0 0
    outer loop
      vertex 0 3 3
      vertex 0 22 3
      vertex 0 25 0
    endloop
  endfacet
  facet normal -1 0 0
    outer loop
      vertex 0 0.75 66
      vertex 0 0.375 69
      vertex 0 3.6 69
    endloop
  endfacet
  facet normal -1 0 0
    outer loop
      vertex 0 25 0
      vertex 0 22 26
      vertex 0 22.5 29
    endloop
  endfacet
  facet normal -1 0 0
    outer loop
      vertex 0 4 68.5
      vertex 0 3.975 69
      vertex 0 4 69
    endloop
  endfacet
  facet normal -1 0 0
    outer loop
      vertex 0 6 68
      vertex 0 6 67.5
      vertex 0 5 68
    endloop
  endfacet
  facet normal -1 0 0
    outer loop
      vertex 0 5 68.5
      vertex 0 5 68
      vertex 0 4 68.5
    endloop
  endfacet
  facet normal -1 0 0
    outer loop
      vertex 0 1.5 53
      vertex 0 0.75 59
      vertex 0 7.3 59
    endloop
  endfacet
  facet normal 0 -1 0
    outer loop
      vertex 3 0 3
      vertex 0 0 0
      vertex 25 0 0
    endloop
  endfacet
  facet normal 0 -1 0
    outer loop
      vertex 25 0 29
      vertex 22.5 0 29
      vertex 25 0 0
    endloop
  endfacet
  facet normal 0 -1 0
    outer loop
      vertex 20 0 33
      vertex 18 0 33
      vertex 20 0 31
    endloop
  endfacet
  facet normal 0 -1 0
    outer loop
      vertex 3 0 26
      vertex 22 0 26
      vertex 20 0 31
    endloop
  endfacet
  facet normal 0 -1 0
    outer loop
      vertex 22 0 26
      vertex 22 0 3
      vertex 25 0 0
    endloop
  endfacet
  facet normal 0 -1 0
    outer loop
      vertex 18 0 35
      vertex 16 0 35
      vertex 18 0 33
    endloop
  endfacet
  facet normal 0 -1 0
    outer loop
      vertex 7 0 67.5
      vertex 6 0 67.5
      vertex 7 0 67
    endloop
  endfacet
  facet normal 0 -1 0
    outer loop
      vertex 3.975 0 69
      vertex 3.975 0 72.5
      vertex 3.6 0 72.5
    endloop
  endfacet
  facet normal 0 -1 0
    outer loop
      vertex 12 0 57
      vertex 10 0 57
      vertex 12 0 56
    endloop
  endfacet
  facet normal 0 -1 0
    outer loop
      vertex 7 0 67
      vertex 6 0 67.5
      vertex 8.05 0 66
    endloop
  endfacet
  facet normal 0 -1 0
    outer loop
      vertex 14 0 56
      vertex 12 0 56
      vertex 14 0 55
    endloop
  endfacet
  facet normal 0 -1 0
    outer loop
      vertex 10 0 58
      vertex 8.05 0 58
      vertex 10 0 57
    endloop
  endfacet
  facet normal 0 -1 0
    outer loop
      vertex 0.75 0 66
      vertex 7.3 0 66
      vertex 6 0 67.5
    endloop
  endfacet
  facet normal 0 -1 0
    outer loop
      vertex 6 0 68
      vertex 5 0 68
      vertex 6 0 67.5
    endloop
  endfacet
  facet normal 0 -1 0
    outer loop
      vertex 1.5 0 53
      vertex 12 0 56
      vertex 10 0 57
    endloop
  endfacet
  facet normal 0 -1 0
    outer loop
      vertex 8.1 0 67
      vertex 7 0 67
      vertex 8.1 0 66
    endloop
  endfacet
  facet normal 0 -1 0
    outer loop
      vertex 0.75 0 66
      vertex 3.6 0 69
      vertex 0.375 0 69
    endloop
  endfacet
  facet normal 0 -1 0
    outer loop
      vertex 0.75 0 66
      vertex 6 0 67.5
      vertex 5 0 68
    endloop
  endfacet
  facet normal 0 -1 0
    outer loop
      vertex 7 0 67
      vertex 8.05 0 66
      vertex 8.1 0 66
    endloop
  endfacet
  facet normal 0 -1 0
    outer loop
      vertex 5 0 68.5
      vertex 4 0 68.5
      vertex 5 0 68
    endloop
  endfacet
  facet normal 0 -1 0
    outer loop
      vertex 4 0 69
      vertex 3.975 0 69
      vertex 4 0 68.5
    endloop
  endfacet
  facet normal 0 -1 0
    outer loop
      vertex 0.75 0 66
      vertex 5 0 68
      vertex 4 0 68.5
    endloop
  endfacet
  facet normal 0 -1 0
    outer loop
      vertex 4 0 72.5
      vertex 0 0 73
      vertex 3.975 0 72.5
    endloop
  endfacet
  facet normal 0 -1 0
    outer loop
      vertex 4 0 73
      vertex 0 0 73
      vertex 4 0 72.5
    endloop
  endfacet
  facet normal 0 -1 0
    outer loop
      vertex 3.6 0 72.5
      vertex 3.6 0 69
      vertex 3.975 0 69
    endloop
  endfacet
  facet normal 0 -1 0
    outer loop
      vertex 0 0 73
      vertex 0 0 0
      vertex 0.375 0 69
    endloop
  endfacet
  facet normal 0 -1 0
    outer loop
      vertex 0.375 0 69
      vertex 0.375 0 72.5
      vertex 0 0 73
    endloop
  endfacet
  facet normal 0 -1 0
    outer loop
      vertex 3.975 0 72.5
      vertex 0 0 73
      vertex 3.6 0 72.5
    endloop
  endfacet
  facet normal 0 -1 0
    outer loop
      vertex 3.975 0 69
      vertex 3.6 0 69
      vertex 4 0 68.5
    endloop
  endfacet
  facet normal 0 -1 0
    outer loop
      vertex 1.5 0 53
      vertex 14.5 0 53
      vertex 12 0 56
    endloop
  endfacet
  facet normal 0 -1 0
    outer loop
      vertex 7.3 0 66
      vertex 7.3 0 59
      vertex 8.05 0 58
    endloop
  endfacet
  facet normal 0 -1 0
    outer loop
      vertex 0.375 0 69
      vertex 0 0 0
      vertex 0.75 0 59
    endloop
  endfacet
  facet normal 0 -1 0
    outer loop
      vertex 0.375 0 69
      vertex 0.75 0 59
      vertex 0.75 0 66
    endloop
  endfacet
  facet normal 0 -1 0
    outer loop
      vertex 1.5 0 53
      vertex 10 0 57
      vertex 8.05 0 58
    endloop
  endfacet
  facet normal 0 -1 0
    outer loop
      vertex 8.05 0 66
      vertex 6 0 67.5
      vertex 7.3 0 66
    endloop
  endfacet
  facet normal 0 -1 0
    outer loop
      vertex 14.5 0 53
      vertex 14.5 0 37
      vertex 16 0 35
    endloop
  endfacet
  facet normal 0 -1 0
    outer loop
      vertex 0.75 0 59
      vertex 0 0 0
      vertex 1.5 0 37
    endloop
  endfacet
  facet normal 0 -1 0
    outer loop
      vertex 0.75 0 59
      vertex 1.5 0 37
      vertex 1.5 0 53
    endloop
  endfacet
  facet normal 0 -1 0
    outer loop
      vertex 0.75 0 66
      vertex 4 0 68.5
      vertex 3.6 0 69
    endloop
  endfacet
  facet normal 0 -1 0
    outer loop
      vertex 14 0 55
      vertex 12 0 56
      vertex 14.5 0 53
    endloop
  endfacet
  facet normal 0 -1 0
    outer loop
      vertex 0.375 0 72.5
      vertex 3.6 0 72.5
      vertex 0 0 73
    endloop
  endfacet
  facet normal 0 -1 0
    outer loop
      vertex 22 0 3
      vertex 3 0 3
      vertex 25 0 0
    endloop
  endfacet
  facet normal 0 -1 0
    outer loop
      vertex 1.5 0 37
      vertex 0 0 0
      vertex 3 0 3
    endloop
  endfacet
  facet normal 0 -1 0
    outer loop
      vertex 1.5 0 37
      vertex 3 0 3
      vertex 3 0 26
    endloop
  endfacet
  facet normal 0 -1 0
    outer loop
      vertex 22.5 0 29
      vertex 22 0 26
      vertex 25 0 0
    endloop
  endfacet
  facet normal 0 -1 0
    outer loop
      vertex 22.5 0 29
      vertex 20 0 31
      vertex 22 0 26
    endloop
  endfacet
  facet normal 0 -1 0
    outer loop
      vertex 8.05 0 58
      vertex 8.05 0 66
      vertex 7.3 0 66
    endloop
  endfacet
  facet normal 0 -1 0
    outer loop
      vertex 1.5 0 53
      vertex 7.3 0 59
      vertex 0.75 0 59
    endloop
  endfacet
  facet normal 0 -1 0
    outer loop
      vertex 22.5 0 31
      vertex 20 0 31
      vertex 22.5 0 29
    endloop
  endfacet
  facet normal 0 -1 0
    outer loop
      vertex 3 0 26
      vertex 20 0 31
      vertex 18 0 33
    endloop
  endfacet
  facet normal 0 -1 0
    outer loop
      vertex 1.5 0 53
      vertex 8.05 0 58
      vertex 7.3 0 59
    endloop
  endfacet
  facet normal 0 -1 0
    outer loop
      vertex 3 0 26
      vertex 18 0 33
      vertex 16 0 35
    endloop
  endfacet
  facet normal 0 -1 0
    outer loop
      vertex 3 0 26
      vertex 16 0 35
      vertex 14.5 0 37
    endloop
  endfacet
  facet normal 0 -1 0
    outer loop
      vertex 3 0 26
      vertex 14.5 0 37
      vertex 1.5 0 37
    endloop
  endfacet
  facet normal 0 -1 0
    outer loop
      vertex 14.5 0 53
      vertex 16 0 55
      vertex 14 0 55
    endloop
  endfacet
  facet normal 0 -1 0
    outer loop
      vertex 16 0 35
      vertex 16 0 55
      vertex 14.5 0 53
    endloop
  endfacet
  facet normal 0 0 -1
    outer loop
      vertex 0 0 0
      vertex 0 25 0
      vertex 25 0 0
    endloop
  endfacet
  facet normal 0 0 -1
    outer loop
      vertex 25 0 0
      vertex 0 25 0
      vertex 25 25 0
    endloop
  endfacet
  facet normal 0 1 0
    outer loop
      vertex 3 25 26
      vertex 0 25 29
      vertex 25 25 29
    endloop
  endfacet
  facet normal 0 1 0
    outer loop
      vertex 22 25 26
      vertex 3 25 26
      vertex 25 25 29
    endloop
  endfacet
  facet normal 0 1 0
    outer loop
      vertex 0 25 0
      vertex 0 25 29
      vertex 3 25 3
    endloop
  endfacet
  facet normal 0 1 0
    outer loop
      vertex 0 25 0
      vertex 3 25 3
      vertex 25 25 0
    endloop
  endfacet
  facet normal 0 1 0
    outer loop
      vertex 22 25 26
      vertex 25 25 0
      vertex 22 25 3
    endloop
  endfacet
  facet normal 0 1 0
    outer loop
      vertex 3 25 3
      vertex 22 25 3
      vertex 25 25 0
    endloop
  endfacet
  facet normal 0 1 0
    outer loop
      vertex 25 25 0
      vertex 22 25 26
      vertex 25 25 29
    endloop
  endfacet
  facet normal 0 1 0
    outer loop
      vertex 3 25 3
      vertex 0 25 29
      vertex 3 25 26
    endloop
  endfacet
  facet normal 0 0 1
    outer loop
      vertex 0 25 29
      vertex 0 22.5 29
      vertex 22.5 22.5 29
    endloop
  endfacet
  facet normal 0 0 1
    outer loop
      vertex 25 25 29
      vertex 0 25 29
      vertex 22.5 22.5 29
    endloop
  endfacet
  facet normal 0 0 1
    outer loop
      vertex 22.5 0 29
      vertex 25 0 29
      vertex 22.5 22.5 29
    endloop
  endfacet
  facet normal 0 0 1
    outer loop
      vertex 25 0 29
      vertex 25 25 29
      vertex 22.5 22.5 29
    endloop
  endfacet
  facet normal 0 1 0
    outer loop
      vertex 0 22.5 29
      vertex 0 22.5 31
      vertex 22.5 22.5 29
    endloop
  endfacet
  facet normal 0 1 0
    outer loop
      vertex 22.5 22.5 29
      vertex 0 22.5 31
      vertex 22.5 22.5 31
    endloop
  endfacet
  facet normal 0 0 1
    outer loop
      vertex 0 22.5 31
      vertex 0 20 31
      vertex 20 20 31
    endloop
  endfacet
  facet normal 0 0 1
    outer loop
      vertex 22.5 22.5 31
      vertex 0 22.5 31
      vertex 20 20 31
    endloop
  endfacet
  facet normal 0 0 1
    outer loop
      vertex 20 0 31
      vertex 22.5 0 31
      vertex 20 20 31
    endloop
  endfacet
  facet normal 0 0 1
    outer loop
      vertex 22.5 0 31
      vertex 22.5 22.5 31
      vertex 20 20 31
    endloop
  endfacet
  facet normal 0 1 0
    outer loop
      vertex 0 20 31
      vertex 0 20 33
      vertex 20 20 31
    endloop
  endfacet
  facet normal 0 1 0
    outer loop
      vertex 20 20 31
      vertex 0 20 33
      vertex 20 20 33
    endloop
  endfacet
  facet normal 0 0 1
    outer loop
      vertex 0 20 33
      vertex 0 18 33
      vertex 18 18 33
    endloop
  endfacet
  facet normal 0 0 1
    outer loop
      vertex 20 20 33
      vertex 0 20 33
      vertex 18 18 33
    endloop
  endfacet
  facet normal 0 0 1
    outer loop
      vertex 18 0 33
      vertex 20 0 33
      vertex 18 18 33
    endloop
  endfacet
  facet normal 0 0 1
    outer loop
      vertex 20 0 33
      vertex 20 20 33
      vertex 18 18 33
    endloop
  endfacet
  facet normal 0 1 0
    outer loop
      vertex 0 18 33
      vertex 0 18 35
      vertex 18 18 33
    endloop
  endfacet
  facet normal 0 1 0
    outer loop
      vertex 18 18 33
      vertex 0 18 35
      vertex 18 18 35
    endloop
  endfacet
  facet normal 0 0 1
    outer loop
      vertex 0 18 35
      vertex 0 16 35
      vertex 16 16 35
    endloop
  endfacet
  facet normal 0 0 1
    outer loop
      vertex 18 18 35
      vertex 0 18 35
      vertex 16 16 35
    endloop
  endfacet
  facet normal 0 0 1
    outer loop
      vertex 16 0 35
      vertex 18 0 35
      vertex 16 16 35
    endloop
  endfacet
  facet normal 0 0 1
    outer loop
      vertex 18 0 35
      vertex 18 18 35
      vertex 16 16 35
    endloop
  endfacet
  facet normal 0 1 0
    outer loop
      vertex 14.5 16 37
      vertex 16 16 35
      vertex 1.5 16 37
    endloop
  endfacet
  facet normal 0 1 0
    outer loop
      vertex 14.5 16 53
      vertex 0 16 55
      vertex 16 16 55
    endloop
  endfacet
  facet normal 0 1 0
    outer loop
      vertex 0 16 35
      vertex 0 16 55
      vertex 1.5 16 53
    endloop
  endfacet
  facet normal 0 1 0
    outer loop
      vertex 0 16 35
      vertex 1.5 16 53
      vertex 1.5 16 37
    endloop
  endfacet
  facet normal 0 1 0
    outer loop
      vertex 0 16 35
      vertex 1.5 16 37
      vertex 16 16 35
    endloop
  endfacet
  facet normal 0 1 0
    outer loop
      vertex 16 16 35
      vertex 14.5 16 37
      vertex 16 16 55
    endloop
  endfacet
  facet normal 0 1 0
    outer loop
      vertex 14.5 16 37
      vertex 14.5 16 53
      vertex 16 16 55
    endloop
  endfacet
  facet normal 0 1 0
    outer loop
      vertex 1.5 16 53
      vertex 0 16 55
      vertex 14.5 16 53
    endloop
  endfacet
  facet normal 0 0 1
    outer loop
      vertex 0 16 55
      vertex 0 14 55
      vertex 14 14 55
    endloop
  endfacet
  facet normal 0 0 1
    outer loop
      vertex 16 16 55
      vertex 0 16 55
      vertex 14 14 55
    endloop
  endfacet
  facet normal 0 0 1
    outer loop
      vertex 14 0 55
      vertex 16 0 55
      vertex 14 14 55
    endloop
  endfacet
  facet normal 0 0 1
    outer loop
      vertex 16 0 55
      vertex 16 16 55
      vertex 14 14 55
    endloop
  endfacet
  facet normal 0 1 0
    outer loop
      vertex 0 14 55
      vertex 0 14 56
      vertex 14 14 55
    endloop
  endfacet
  facet normal 0 1 0
    outer loop
      vertex 14 14 55
      vertex 0 14 56
      vertex 14 14 56
    endloop
  endfacet
  facet normal 0 0 1
    outer loop
      vertex 0 14 56
      vertex 0 12 56
      vertex 12 12 56
    endloop
  endfacet
  facet normal 0 0 1
    outer loop
      vertex 14 14 56
      vertex 0 14 56
      vertex 12 12 56
    endloop
  endfacet
  facet normal 0 0 1
    outer loop
      vertex 12 0 56
      vertex 14 0 56
      vertex 12 12 56
    endloop
  endfacet
  facet normal 0 0 1
    outer loop
      vertex 14 0 56
      vertex 14 14 56
      vertex 12 12 56
    endloop
  endfacet
  facet normal 0 1 0
    outer loop
      vertex 0 12 56
      vertex 0 12 57
      vertex 12 12 56
    endloop
  endfacet
  facet normal 0 1 0
    outer loop
      vertex 12 12 56
      vertex 0 12 57
      vertex 12 12 57
    endloop
  endfacet
  facet normal 0 0 1
    outer loop
      vertex 0 12 57
      vertex 0 10 57
      vertex 10 10 57
    endloop
  endfacet
  facet normal 0 0 1
    outer loop
      vertex 12 12 57
      vertex 0 12 57
      vertex 10 10 57
    endloop
  endfacet
  facet normal 0 0 1
    outer loop
      vertex 10 0 57
      vertex 12 0 57
      vertex 10 10 57
    endloop
  endfacet
  facet normal 0 0 1
    outer loop
      vertex 12 0 57
      vertex 12 12 57
      vertex 10 10 57
    endloop
  endfacet
  facet normal 0 1 0
    outer loop
      vertex 0 10 57
      vertex 0 10 58
      vertex 10 10 57
    endloop
  endfacet
  facet normal 0 1 0
    outer loop
      vertex 10 10 57
      vertex 0 10 58
      vertex 10 10 58
    endloop
  endfacet
  facet normal 0 0 1
    outer loop
      vertex 7.3 8.05 58
      vertex 8.05 8.05 58
      vertex 0 10 58
    endloop
  endfacet
  facet normal 0 0 1
    outer loop
      vertex 0 10 58
      vertex 0 8.05 58
      vertex 0.75 8.05 58
    endloop
  endfacet
  facet normal 0 0 1
    outer loop
      vertex 8 7.3 58
      vertex 8 0.75 58
      vertex 8.05 7.3 58
    endloop
  endfacet
  facet normal 0 0 1
    outer loop
      vertex 7.3 8 58
      vertex 0 10 58
      vertex 0.75 8.05 58
    endloop
  endfacet
  facet normal 0 0 1
    outer loop
      vertex 0.75 8 58
      vertex 7.3 8 58
      vertex 0.75 8.05 58
    endloop
  endfacet
  facet normal 0 0 1
    outer loop
      vertex 7.3 8 58
      vertex 7.3 8.05 58
      vertex 0 10 58
    endloop
  endfacet
  facet normal 0 0 1
    outer loop
      vertex 8.05 8.05 58
      vertex 10 10 58
      vertex 0 10 58
    endloop
  endfacet
  facet normal 0 0 1
    outer loop
      vertex 8.05 7.3 58
      vertex 10 0 58
      vertex 8.05 8.05 58
    endloop
  endfacet
  facet normal 0 0 1
    outer loop
      vertex 8.05 0.75 58
      vertex 10 0 58
      vertex 8.05 7.3 58
    endloop
  endfacet
  facet normal 0 0 1
    outer loop
      vertex 8 0.75 58
      vertex 8.05 0.75 58
      vertex 8.05 7.3 58
    endloop
  endfacet
  facet normal 0 0 1
    outer loop
      vertex 8.05 0 58
      vertex 10 0 58
      vertex 8.05 0.75 58
    endloop
  endfacet
  facet normal 0 0 1
    outer loop
      vertex 10 0 58
      vertex 10 10 58
      vertex 8.05 8.05 58
    endloop
  endfacet
  facet normal 0 1 0
    outer loop
      vertex 0 8.05 58
      vertex 0 8.05 66
      vertex 0.75 8.05 58
    endloop
  endfacet
  facet normal 0 1 0
    outer loop
      vertex 0.75 8.05 58
      vertex 0 8.05 66
      vertex 0.75 8.05 66
    endloop
  endfacet
  facet normal 0 0 -1
    outer loop
      vertex 0 8.1 66
      vertex 0.75 8.05 66
      vertex 0 8.05 66
    endloop
  endfacet
  facet normal 0 0 -1
    outer loop
      vertex 8.1 8.1 66
      vertex 0.75 8.05 66
      vertex 0 8.1 66
    endloop
  endfacet
  facet normal 0 0 -1
    outer loop
      vertex 7.3 8.05 66
      vertex 0.75 8.05 66
      vertex 8.1 8.1 66
    endloop
  endfacet
  facet normal 0 0 -1
    outer loop
      vertex 8.05 0.75 66
      vertex 8.1 8.1 66
      vertex 8.1 0 66
    endloop
  endfacet
  facet normal 0 0 -1
    outer loop
      vertex 8.05 7.3 66
      vertex 8.1 8.1 66
      vertex 8.05 0.75 66
    endloop
  endfacet
  facet normal 0 0 -1
    outer loop
      vertex 7.3 0 66
      vertex 0 7.3 66
      vertex 7.3 0.75 66
    endloop
  endfacet
  facet normal 0 0 -1
    outer loop
      vertex 0.75 7.3 66
      vertex 7.3 0.75 66
      vertex 0 7.3 66
    endloop
  endfacet
  facet normal 0 0 -1
    outer loop
      vertex 0 0.75 66
      vertex 0 7.3 66
      vertex 0.75 0.75 66
    endloop
  endfacet
  facet normal 0 0 -1
    outer loop
      vertex 7.3 8.05 66
      vertex 8.1 8.1 66
      vertex 8.05 8.05 66
    endloop
  endfacet
  facet normal 0 0 -1
    outer loop
      vertex 7.3 0 66
      vertex 0.75 0 66
      vertex 0.75 0.75 66
    endloop
  endfacet
  facet normal 0 0 -1
    outer loop
      vertex 7.3 0 66
      vertex 0.75 0.75 66
      vertex 0 7.3 66
    endloop
  endfacet
  facet normal 0 0 -1
    outer loop
      vertex 7.3 7.3 66
      vertex 0.75 7.3 66
      vertex 7.3 8.05 66
    endloop
  endfacet
  facet normal 0 0 -1
    outer loop
      vertex 0.75 7.3 66
      vertex 7.3 7.3 66
      vertex 8.05 0.75 66
    endloop
  endfacet
  facet normal 0 0 -1
    outer loop
      vertex 8.05 8.05 66
      vertex 8.1 8.1 66
      vertex 8.05 7.3 66
    endloop
  endfacet
  facet normal 0 0 -1
    outer loop
      vertex 7.3 7.3 66
      vertex 8.05 7.3 66
      vertex 8.05 0.75 66
    endloop
  endfacet
  facet normal 0 0 -1
    outer loop
      vertex 0.75 7.3 66
      vertex 0.75 8.05 66
      vertex 7.3 8.05 66
    endloop
  endfacet
  facet normal 0 0 -1
    outer loop
      vertex 8.05 0.75 66
      vertex 8.1 0 66
      vertex 8.05 0 66
    endloop
  endfacet
  facet normal 0 0 -1
    outer loop
      vertex 7.3 0.75 66
      vertex 0.75 7.3 66
      vertex 8.05 0.75 66
    endloop
  endfacet
  facet normal 0 1 0
    outer loop
      vertex 0 8.1 66
      vertex 0 8.1 67
      vertex 8.1 8.1 66
    endloop
  endfacet
  facet normal 0 1 0
    outer loop
      vertex 8.1 8.1 66
      vertex 0 8.1 67
      vertex 8.1 8.1 67
    endloop
  endfacet
  facet normal 0 0 1
    outer loop
      vertex 0 8.1 67
      vertex 0 7 67
      vertex 7 7 67
    endloop
  endfacet
  facet normal 0 0 1
    outer loop
      vertex 8.1 8.1 67
      vertex 0 8.1 67
      vertex 7 7 67
    endloop
  endfacet
  facet normal 0 0 1
    outer loop
      vertex 7 0 67
      vertex 8.1 0 67
      vertex 7 7 67
    endloop
  endfacet
  facet normal 0 0 1
    outer loop
      vertex 8.1 0 67
      vertex 8.1 8.1 67
      vertex 7 7 67
    endloop
  endfacet
  facet normal 0 1 0
    outer loop
      vertex 0 7 67
      vertex 0 7 67.5
      vertex 7 7 67
    endloop
  endfacet
  facet normal 0 1 0
    outer loop
      vertex 7 7 67
      vertex 0 7 67.5
      vertex 7 7 67.5
    endloop
  endfacet
  facet normal 0 0 1
    outer loop
      vertex 0 7 67.5
      vertex 0 6 67.5
      vertex 6 6 67.5
    endloop
  endfacet
  facet normal 0 0 1
    outer loop
      vertex 7 7 67.5
      vertex 0 7 67.5
      vertex 6 6 67.5
    endloop
  endfacet
  facet normal 0 0 1
    outer loop
      vertex 6 0 67.5
      vertex 7 0 67.5
      vertex 6 6 67.5
    endloop
  endfacet
  facet normal 0 0 1
    outer loop
      vertex 7 0 67.5
      vertex 7 7 67.5
      vertex 6 6 67.5
    endloop
  endfacet
  facet normal 0 1 0
    outer loop
      vertex 0 6 67.5
      vertex 0 6 68
      vertex 6 6 67.5
    endloop
  endfacet
  facet normal 0 1 0
    outer loop
      vertex 6 6 67.5
      vertex 0 6 68
      vertex 6 6 68
    endloop
  endfacet
  facet normal 0 0 1
    outer loop
      vertex 0 6 68
      vertex 0 5 68
      vertex 5 5 68
    endloop
  endfacet
  facet normal 0 0 1
    outer loop
      vertex 6 6 68
      vertex 0 6 68
      vertex 5 5 68
    endloop
  endfacet
  facet normal 0 0 1
    outer loop
      vertex 5 0 68
      vertex 6 0 68
      vertex 5 5 68
    endloop
  endfacet
  facet normal 0 0 1
    outer loop
      vertex 6 0 68
      vertex 6 6 68
      vertex 5 5 68
    endloop
  endfacet
  facet normal 0 1 0
    outer loop
      vertex 0 5 68
      vertex 0 5 68.5
      vertex 5 5 68
    endloop
  endfacet
  facet normal 0 1 0
    outer loop
      vertex 5 5 68
      vertex 0 5 68.5
      vertex 5 5 68.5
    endloop
  endfacet
  facet normal 0 0 1
    outer loop
      vertex 0 5 68.5
      vertex 0 4 68.5
      vertex 4 4 68.5
    endloop
  endfacet
  facet normal 0 0 1
    outer loop
      vertex 5 5 68.5
      vertex 0 5 68.5
      vertex 4 4 68.5
    endloop
  endfacet
  facet normal 0 0 1
    outer loop
      vertex 4 0 68.5
      vertex 5 0 68.5
      vertex 4 4 68.5
    endloop
  endfacet
  facet normal 0 0 1
    outer loop
      vertex 5 0 68.5
      vertex 5 5 68.5
      vertex 4 4 68.5
    endloop
  endfacet
  facet normal 0 1 0
    outer loop
      vertex 0 4 68.5
      vertex 0 4 69
      vertex 4 4 68.5
    endloop
  endfacet
  facet normal 0 1 0
    outer loop
      vertex 4 4 68.5
      vertex 0 4 69
      vertex 4 4 69
    endloop
  endfacet
  facet normal 0 0 1
    outer loop
      vertex 0 3.6 69
      vertex 0 0.375 69
      vertex 0.375 0.375 69
    endloop
  endfacet
  facet normal 0 0 1
    outer loop
      vertex 1.625 1.625 69
      vertex 0 3.6 69
      vertex 0.375 0.375 69
    endloop
  endfacet
  facet normal 0 0 1
    outer loop
      vertex 0.375 0 69
      vertex 3.6 0 69
      vertex 0.375 0.375 69
    endloop
  endfacet
  facet normal 0 0 1
    outer loop
      vertex 1.875 1.875 69
      vertex 3.6 0.375 69
      vertex 0 3.6 69
    endloop
  endfacet
  facet normal 0 0 1
    outer loop
      vertex 2.35 1.875 69
      vertex 2.6 1.875 69
      vertex 1.875 2.6 69
    endloop
  endfacet
  facet normal 0 0 1
    outer loop
      vertex 3.975 0 69
      vertex 4 0 69
      vertex 3.975 0.375 69
    endloop
  endfacet
  facet normal 0 0 1
    outer loop
      vertex 4 0 69
      vertex 4 4 69
      vertex 3.975 0.375 69
    endloop
  endfacet
  facet normal 0 0 1
    outer loop
      vertex 4 4 69
      vertex 0 4 69
      vertex 0 3.975 69
    endloop
  endfacet
  facet normal 0 0 1
    outer loop
      vertex 4 4 69
      vertex 0 3.975 69
      vertex 0.375 3.975 69
    endloop
  endfacet
  facet normal 0 0 1
    outer loop
      vertex 1.625 2.35 69
      vertex 0.375 3.6 69
      vertex 0 3.6 69
    endloop
  endfacet
  facet normal 0 0 1
    outer loop
      vertex 3.6 0 69
      vertex 1.625 1.625 69
      vertex 0.375 0.375 69
    endloop
  endfacet
  facet normal 0 0 1
    outer loop
      vertex 1.625 1.875 69
      vertex 0 3.6 69
      vertex 1.625 1.625 69
    endloop
  endfacet
  facet normal 0 0 1
    outer loop
      vertex 1.875 1.875 69
      vertex 1.875 1.625 69
      vertex 3.6 0 69
    endloop
  endfacet
  facet normal 0 0 1
    outer loop
      vertex 3.6 0 69
      vertex 3.6 0.375 69
      vertex 1.875 1.875 69
    endloop
  endfacet
  facet normal 0 0 1
    outer loop
      vertex 3.6 0 69
      vertex 1.875 1.625 69
      vertex 1.625 1.625 69
    endloop
  endfacet
  facet normal 0 0 1
    outer loop
      vertex 2.6 1.875 69
      vertex 2.6 1.625 69
      vertex 3.975 0.375 69
    endloop
  endfacet
  facet normal 0 0 1
    outer loop
      vertex 2.35 1.625 69
      vertex 2.35 1.875 69
      vertex 1.625 2.35 69
    endloop
  endfacet
  facet normal 0 0 1
    outer loop
      vertex 2.35 1.875 69
      vertex 1.875 2.6 69
      vertex 1.875 2.35 69
    endloop
  endfacet
  facet normal 0 0 1
    outer loop
      vertex 3.975 3.6 69
      vertex 3.6 3.6 69
      vertex 2.6 2.35 69
    endloop
  endfacet
  facet normal 0 0 1
    outer loop
      vertex 2.35 1.625 69
      vertex 1.625 2.35 69
      vertex 0 3.6 69
    endloop
  endfacet
  facet normal 0 0 1
    outer loop
      vertex 3.6 0.375 69
      vertex 2.35 1.625 69
      vertex 0 3.6 69
    endloop
  endfacet
  facet normal 0 0 1
    outer loop
      vertex 3.6 0.375 69
      vertex 3.975 0.375 69
      vertex 2.35 1.625 69
    endloop
  endfacet
  facet normal 0 0 1
    outer loop
      vertex 2.6 1.625 69
      vertex 2.35 1.625 69
      vertex 3.975 0.375 69
    endloop
  endfacet
  facet normal 0 0 1
    outer loop
      vertex 3.975 3.6 69
      vertex 2.6 2.35 69
      vertex 2.6 1.875 69
    endloop
  endfacet
  facet normal 0 0 1
    outer loop
      vertex 3.6 3.6 69
      vertex 1.625 2.6 69
      vertex 1.875 2.6 69
    endloop
  endfacet
  facet normal 0 0 1
    outer loop
      vertex 1.625 2.35 69
      vertex 1.625 2.6 69
      vertex 0.375 3.6 69
    endloop
  endfacet
  facet normal 0 0 1
    outer loop
      vertex 3.975 3.975 69
      vertex 3.975 3.6 69
      vertex 4 4 69
    endloop
  endfacet
  facet normal 0 0 1
    outer loop
      vertex 2.6 1.875 69
      vertex 2.35 2.35 69
      vertex 1.875 2.6 69
    endloop
  endfacet
  facet normal 0 0 1
    outer loop
      vertex 2.35 2.35 69
      vertex 2.35 2.6 69
      vertex 1.875 2.6 69
    endloop
  endfacet
  facet normal 0 0 1
    outer loop
      vertex 3.6 3.6 69
      vertex 1.875 2.6 69
      vertex 2.35 2.6 69
    endloop
  endfacet
  facet normal 0 0 1
    outer loop
      vertex 2.35 2.35 69
      vertex 2.6 1.875 69
      vertex 2.6 2.35 69
    endloop
  endfacet
  facet normal 0 0 1
    outer loop
      vertex 2.6 2.6 69
      vertex 3.6 3.6 69
      vertex 2.35 2.6 69
    endloop
  endfacet
  facet normal 0 0 1
    outer loop
      vertex 2.6 2.6 69
      vertex 2.6 2.35 69
      vertex 3.6 3.6 69
    endloop
  endfacet
  facet normal 0 0 1
    outer loop
      vertex 1.625 1.875 69
      vertex 1.875 1.875 69
      vertex 0 3.6 69
    endloop
  endfacet
  facet normal 0 0 1
    outer loop
      vertex 4 4 69
      vertex 0.375 3.975 69
      vertex 3.6 3.975 69
    endloop
  endfacet
  facet normal 0 0 1
    outer loop
      vertex 3.6 3.975 69
      vertex 3.975 3.975 69
      vertex 4 4 69
    endloop
  endfacet
  facet normal 0 0 1
    outer loop
      vertex 3.975 0.375 69
      vertex 3.975 3.6 69
      vertex 2.6 1.875 69
    endloop
  endfacet
  facet normal 0 0 1
    outer loop
      vertex 3.975 0.375 69
      vertex 4 4 69
      vertex 3.975 3.6 69
    endloop
  endfacet
  facet normal 0 0 1
    outer loop
      vertex 0.375 3.975 69
      vertex 0.375 3.6 69
      vertex 3.6 3.975 69
    endloop
  endfacet
  facet normal 0 0 1
    outer loop
      vertex 1.875 2.35 69
      vertex 1.625 2.35 69
      vertex 2.35 1.875 69
    endloop
  endfacet
  facet normal 0 0 1
    outer loop
      vertex 3.6 3.6 69
      vertex 0.375 3.6 69
      vertex 1.625 2.6 69
    endloop
  endfacet
  facet normal 0 0 1
    outer loop
      vertex 3.6 3.6 69
      vertex 3.6 3.975 69
      vertex 0.375 3.6 69
    endloop
  endfacet
  facet normal 0 1 0
    outer loop
      vertex 0 3.975 69
      vertex 0 3.975 72.5
      vertex 0.375 3.975 69
    endloop
  endfacet
  facet normal 0 1 0
    outer loop
      vertex 0.375 3.975 69
      vertex 0 3.975 72.5
      vertex 0.375 3.975 72.5
    endloop
  endfacet
  facet normal 0 0 -1
    outer loop
      vertex 0 0.375 72.5
      vertex 0 3.6 72.5
      vertex 0.375 0.375 72.5
    endloop
  endfacet
  facet normal 0 0 -1
    outer loop
      vertex 0.375 0.375 72.5
      vertex 0 3.6 72.5
      vertex 0.375 3.6 72.5
    endloop
  endfacet
  facet normal 0 0 -1
    outer loop
      vertex 3.6 3.6 72.5
      vertex 3.6 0.375 72.5
      vertex 0.375 0.375 72.5
    endloop
  endfacet
  facet normal 0 0 -1
    outer loop
      vertex 0.375 3.975 72.5
      vertex 0 3.975 72.5
      vertex 0 4 72.5
    endloop
  endfacet
  facet normal 0 0 -1
    outer loop
      vertex 0.375 3.975 72.5
      vertex 0 4 72.5
      vertex 4 4 72.5
    endloop
  endfacet
  facet normal 0 0 -1
    outer loop
      vertex 3.6 3.6 72.5
      vertex 0.375 3.6 72.5
      vertex 3.6 3.975 72.5
    endloop
  endfacet
  facet normal 0 0 -1
    outer loop
      vertex 3.975 0.375 72.5
      vertex 4 4 72.5
      vertex 4 0 72.5
    endloop
  endfacet
  facet normal 0 0 -1
    outer loop
      vertex 3.975 0.375 72.5
      vertex 4 0 72.5
      vertex 3.975 0 72.5
    endloop
  endfacet
  facet normal 0 0 -1
    outer loop
      vertex 3.975 3.975 72.5
      vertex 4 4 72.5
      vertex 3.975 3.6 72.5
    endloop
  endfacet
  facet normal 0 0 -1
    outer loop
      vertex 3.6 0 72.5
      vertex 0.375 0.375 72.5
      vertex 3.6 0.375 72.5
    endloop
  endfacet
  facet normal 0 0 -1
    outer loop
      vertex 3.975 3.6 72.5
      vertex 3.975 0.375 72.5
      vertex 3.6 0.375 72.5
    endloop
  endfacet
  facet normal 0 0 -1
    outer loop
      vertex 0.375 3.975 72.5
      vertex 4 4 72.5
      vertex 3.6 3.975 72.5
    endloop
  endfacet
  facet normal 0 0 -1
    outer loop
      vertex 0.375 3.975 72.5
      vertex 3.6 3.975 72.5
      vertex 0.375 3.6 72.5
    endloop
  endfacet
  facet normal 0 0 -1
    outer loop
      vertex 0.375 3.6 72.5
      vertex 3.6 3.6 72.5
      vertex 0.375 0.375 72.5
    endloop
  endfacet
  facet normal 0 0 -1
    outer loop
      vertex 4 4 72.5
      vertex 3.975 0.375 72.5
      vertex 3.975 3.6 72.5
    endloop
  endfacet
  facet normal 0 0 -1
    outer loop
      vertex 3.975 3.6 72.5
      vertex 3.6 0.375 72.5
      vertex 3.6 3.6 72.5
    endloop
  endfacet
  facet normal 0 0 -1
    outer loop
      vertex 3.6 3.975 72.5
      vertex 4 4 72.5
      vertex 3.975 3.975 72.5
    endloop
  endfacet
  facet normal 0 0 -1
    outer loop
      vertex 0.375 0.375 72.5
      vertex 3.6 0 72.5
      vertex 0.375 0 72.5
    endloop
  endfacet
  facet normal 0 1 0
    outer loop
      vertex 0 4 72.5
      vertex 0 4 73
      vertex 4 4 72.5
    endloop
  endfacet
  facet normal 0 1 0
    outer loop
      vertex 4 4 72.5
      vertex 0 4 73
      vertex 4 4 73
    endloop
  endfacet
  facet normal 0 0 1
    outer loop
      vertex 0 4 73
      vertex 0 0 73
      vertex 4 0 73
    endloop
  endfacet
  facet normal 0 0 1
    outer loop
      vertex 4 4 73
      vertex 0 4 73
      vertex 4 0 73
    endloop
  endfacet
  facet normal 0 1 0
    outer loop
      vertex 0 0.375 69
      vertex 0 0.375 72.5
      vertex 0.375 0.375 69
    endloop
  endfacet
  facet normal 0 1 0
    outer loop
      vertex 0.375 0.375 69
      vertex 0 0.375 72.5
      vertex 0.375 0.375 72.5
    endloop
  endfacet
  facet normal 0 -1 0
    outer loop
      vertex 0 3.6 72.5
      vertex 0 3.6 69
      vertex 0.375 3.6 69
    endloop
  endfacet
  facet normal 0 -1 0
    outer loop
      vertex 0.375 3.6 72.5
      vertex 0 3.6 72.5
      vertex 0.375 3.6 69
    endloop
  endfacet
  facet normal 0 1 0
    outer loop
      vertex 0 0.75 59
      vertex 0 0.75 66
      vertex 0.75 0.75 59
    endloop
  endfacet
  facet normal 0 1 0
    outer loop
      vertex 0.75 0.75 59
      vertex 0 0.75 66
      vertex 0.75 0.75 66
    endloop
  endfacet
  facet normal 0 -1 0
    outer loop
      vertex 0 7.3 66
      vertex 0 7.3 59
      vertex 0.75 7.3 59
    endloop
  endfacet
  facet normal 0 -1 0
    outer loop
      vertex 0.75 7.3 66
      vertex 0 7.3 66
      vertex 0.75 7.3 59
    endloop
  endfacet
  facet normal 0 0 1
    outer loop
      vertex 0 7.3 59
      vertex 0 0.75 59
      vertex 0.75 0.75 59
    endloop
  endfacet
  facet normal 0 0 1
    outer loop
      vertex 3.25 3.25 59
      vertex 0 7.3 59
      vertex 0.75 0.75 59
    endloop
  endfacet
  facet normal 0 0 1
    outer loop
      vertex 0.75 0 59
      vertex 7.3 0 59
      vertex 0.75 0.75 59
    endloop
  endfacet
  facet normal 0 0 1
    outer loop
      vertex 3.75 3.75 59
      vertex 7.3 0.75 59
      vertex 0 7.3 59
    endloop
  endfacet
  facet normal 0 0 1
    outer loop
      vertex 4.75 3.75 59
      vertex 5.25 3.75 59
      vertex 3.75 5.25 59
    endloop
  endfacet
  facet normal 0 0 1
    outer loop
      vertex 3.25 5.25 59
      vertex 7.3 7.3 59
      vertex 0.75 7.3 59
    endloop
  endfacet
  facet normal 0 0 1
    outer loop
      vertex 8 0.75 59
      vertex 8 7.3 59
      vertex 7.3 7.3 59
    endloop
  endfacet
  facet normal 0 0 1
    outer loop
      vertex 3.25 3.75 59
      vertex 3.75 3.75 59
      vertex 0 7.3 59
    endloop
  endfacet
  facet normal 0 0 1
    outer loop
      vertex 3.25 4.75 59
      vertex 0.75 7.3 59
      vertex 0 7.3 59
    endloop
  endfacet
  facet normal 0 0 1
    outer loop
      vertex 7.3 7.3 59
      vertex 7.3 8 59
      vertex 0.75 7.3 59
    endloop
  endfacet
  facet normal 0 0 1
    outer loop
      vertex 7.3 0 59
      vertex 3.25 3.25 59
      vertex 0.75 0.75 59
    endloop
  endfacet
  facet normal 0 0 1
    outer loop
      vertex 3.25 3.75 59
      vertex 0 7.3 59
      vertex 3.25 3.25 59
    endloop
  endfacet
  facet normal 0 0 1
    outer loop
      vertex 3.75 3.75 59
      vertex 3.75 3.25 59
      vertex 7.3 0 59
    endloop
  endfacet
  facet normal 0 0 1
    outer loop
      vertex 7.3 0 59
      vertex 7.3 0.75 59
      vertex 3.75 3.75 59
    endloop
  endfacet
  facet normal 0 0 1
    outer loop
      vertex 7.3 0 59
      vertex 3.75 3.25 59
      vertex 3.25 3.25 59
    endloop
  endfacet
  facet normal 0 0 1
    outer loop
      vertex 5.25 3.75 59
      vertex 5.25 3.25 59
      vertex 8 0.75 59
    endloop
  endfacet
  facet normal 0 0 1
    outer loop
      vertex 4.75 3.25 59
      vertex 4.75 3.75 59
      vertex 3.25 4.75 59
    endloop
  endfacet
  facet normal 0 0 1
    outer loop
      vertex 3.75 5.25 59
      vertex 7.3 7.3 59
      vertex 3.25 5.25 59
    endloop
  endfacet
  facet normal 0 0 1
    outer loop
      vertex 4.75 3.75 59
      vertex 3.75 5.25 59
      vertex 3.75 4.75 59
    endloop
  endfacet
  facet normal 0 0 1
    outer loop
      vertex 4.75 5.25 59
      vertex 7.3 7.3 59
      vertex 3.75 5.25 59
    endloop
  endfacet
  facet normal 0 0 1
    outer loop
      vertex 4.75 3.25 59
      vertex 3.25 4.75 59
      vertex 0 7.3 59
    endloop
  endfacet
  facet normal 0 0 1
    outer loop
      vertex 7.3 0.75 59
      vertex 4.75 3.25 59
      vertex 0 7.3 59
    endloop
  endfacet
  facet normal 0 0 1
    outer loop
      vertex 7.3 0.75 59
      vertex 8 0.75 59
      vertex 4.75 3.25 59
    endloop
  endfacet
  facet normal 0 0 1
    outer loop
      vertex 5.25 3.25 59
      vertex 4.75 3.25 59
      vertex 8 0.75 59
    endloop
  endfacet
  facet normal 0 0 1
    outer loop
      vertex 8 0.75 59
      vertex 7.3 7.3 59
      vertex 5.25 3.75 59
    endloop
  endfacet
  facet normal 0 0 1
    outer loop
      vertex 3.25 4.75 59
      vertex 3.25 5.25 59
      vertex 0.75 7.3 59
    endloop
  endfacet
  facet normal 0 0 1
    outer loop
      vertex 5.25 3.75 59
      vertex 4.75 4.75 59
      vertex 3.75 5.25 59
    endloop
  endfacet
  facet normal 0 0 1
    outer loop
      vertex 5.25 4.75 59
      vertex 7.3 7.3 59
      vertex 5.25 5.25 59
    endloop
  endfacet
  facet normal 0 0 1
    outer loop
      vertex 4.75 4.75 59
      vertex 4.75 5.25 59
      vertex 3.75 5.25 59
    endloop
  endfacet
  facet normal 0 0 1
    outer loop
      vertex 5.25 5.25 59
      vertex 7.3 7.3 59
      vertex 4.75 5.25 59
    endloop
  endfacet
  facet normal 0 0 1
    outer loop
      vertex 5.25 4.75 59
      vertex 5.25 3.75 59
      vertex 7.3 7.3 59
    endloop
  endfacet
  facet normal 0 0 1
    outer loop
      vertex 4.75 4.75 59
      vertex 5.25 3.75 59
      vertex 5.25 4.75 59
    endloop
  endfacet
  facet normal 0 0 1
    outer loop
      vertex 0.75 8 59
      vertex 0.75 7.3 59
      vertex 7.3 8 59
    endloop
  endfacet
  facet normal 0 0 1
    outer loop
      vertex 3.75 4.75 59
      vertex 3.25 4.75 59
      vertex 4.75 3.75 59
    endloop
  endfacet
  facet normal 0 1 0
    outer loop
      vertex 0 1.5 37
      vertex 0 1.5 53
      vertex 1.5 1.5 37
    endloop
  endfacet
  facet normal 0 1 0
    outer loop
      vertex 1.5 1.5 37
      vertex 0 1.5 53
      vertex 1.5 1.5 53
    endloop
  endfacet
  facet normal 0 0 -1
    outer loop
      vertex 1.5 14.5 53
      vertex 1.5 16 53
      vertex 14.5 16 53
    endloop
  endfacet
  facet normal 0 0 -1
    outer loop
      vertex 1.5 14.5 53
      vertex 14.5 16 53
      vertex 14.5 14.5 53
    endloop
  endfacet
  facet normal 0 0 -1
    outer loop
      vertex 1.5 14.5 53
      vertex 16 1.5 53
      vertex 0 14.5 53
    endloop
  endfacet
  facet normal 0 0 -1
    outer loop
      vertex 14.5 14.5 53
      vertex 16 14.5 53
      vertex 16 1.5 53
    endloop
  endfacet
  facet normal 0 0 -1
    outer loop
      vertex 14.5 14.5 53
      vertex 16 1.5 53
      vertex 1.5 14.5 53
    endloop
  endfacet
  facet normal 0 0 -1
    outer loop
      vertex 16 1.5 53
      vertex 14.5 1.5 53
      vertex 0 14.5 53
    endloop
  endfacet
  facet normal 0 0 -1
    outer loop
      vertex 14.5 1.5 53
      vertex 14.5 0 53
      vertex 0 14.5 53
    endloop
  endfacet
  facet normal 0 0 -1
    outer loop
      vertex 14.5 0 53
      vertex 1.5 0 53
      vertex 1.5 1.5 53
    endloop
  endfacet
  facet normal 0 0 -1
    outer loop
      vertex 14.5 0 53
      vertex 1.5 1.5 53
      vertex 0 14.5 53
    endloop
  endfacet
  facet normal 0 0 -1
    outer loop
      vertex 0 1.5 53
      vertex 0 14.5 53
      vertex 1.5 1.5 53
    endloop
  endfacet
  facet normal 0 -1 0
    outer loop
      vertex 0 14.5 53
      vertex 0 14.5 37
      vertex 1.5 14.5 37
    endloop
  endfacet
  facet normal 0 -1 0
    outer loop
      vertex 1.5 14.5 53
      vertex 0 14.5 53
      vertex 1.5 14.5 37
    endloop
  endfacet
  facet normal 0 0 1
    outer loop
      vertex 0 14.5 37
      vertex 0 1.5 37
      vertex 1.5 1.5 37
    endloop
  endfacet
  facet normal 0 0 1
    outer loop
      vertex 6.5 6.5 37
      vertex 0 14.5 37
      vertex 1.5 1.5 37
    endloop
  endfacet
  facet normal 0 0 1
    outer loop
      vertex 1.5 0 37
      vertex 14.5 0 37
      vertex 1.5 1.5 37
    endloop
  endfacet
  facet normal 0 0 1
    outer loop
      vertex 7.5 7.5 37
      vertex 14.5 1.5 37
      vertex 0 14.5 37
    endloop
  endfacet
  facet normal 0 0 1
    outer loop
      vertex 9.5 7.5 37
      vertex 10.5 7.5 37
      vertex 7.5 10.5 37
    endloop
  endfacet
  facet normal 0 0 1
    outer loop
      vertex 6.5 10.5 37
      vertex 14.5 14.5 37
      vertex 1.5 14.5 37
    endloop
  endfacet
  facet normal 0 0 1
    outer loop
      vertex 16 1.5 37
      vertex 16 14.5 37
      vertex 14.5 14.5 37
    endloop
  endfacet
  facet normal 0 0 1
    outer loop
      vertex 6.5 7.5 37
      vertex 7.5 7.5 37
      vertex 0 14.5 37
    endloop
  endfacet
  facet normal 0 0 1
    outer loop
      vertex 6.5 9.5 37
      vertex 1.5 14.5 37
      vertex 0 14.5 37
    endloop
  endfacet
  facet normal 0 0 1
    outer loop
      vertex 14.5 14.5 37
      vertex 14.5 16 37
      vertex 1.5 14.5 37
    endloop
  endfacet
  facet normal 0 0 1
    outer loop
      vertex 14.5 0 37
      vertex 6.5 6.5 37
      vertex 1.5 1.5 37
    endloop
  endfacet
  facet normal 0 0 1
    outer loop
      vertex 6.5 7.5 37
      vertex 0 14.5 37
      vertex 6.5 6.5 37
    endloop
  endfacet
  facet normal 0 0 1
    outer loop
      vertex 7.5 7.5 37
      vertex 7.5 6.5 37
      vertex 14.5 0 37
    endloop
  endfacet
  facet normal 0 0 1
    outer loop
      vertex 14.5 0 37
      vertex 14.5 1.5 37
      vertex 7.5 7.5 37
    endloop
  endfacet
  facet normal 0 0 1
    outer loop
      vertex 14.5 0 37
      vertex 7.5 6.5 37
      vertex 6.5 6.5 37
    endloop
  endfacet
  facet normal 0 0 1
    outer loop
      vertex 10.5 7.5 37
      vertex 10.5 6.5 37
      vertex 16 1.5 37
    endloop
  endfacet
  facet normal 0 0 1
    outer loop
      vertex 9.5 6.5 37
      vertex 9.5 7.5 37
      vertex 6.5 9.5 37
    endloop
  endfacet
  facet normal 0 0 1
    outer loop
      vertex 7.5 10.5 37
      vertex 14.5 14.5 37
      vertex 6.5 10.5 37
    endloop
  endfacet
  facet normal 0 0 1
    outer loop
      vertex 9.5 7.5 37
      vertex 7.5 10.5 37
      vertex 7.5 9.5 37
    endloop
  endfacet
  facet normal 0 0 1
    outer loop
      vertex 9.5 10.5 37
      vertex 14.5 14.5 37
      vertex 7.5 10.5 37
    endloop
  endfacet
  facet normal 0 0 1
    outer loop
      vertex 9.5 6.5 37
      vertex 6.5 9.5 37
      vertex 0 14.5 37
    endloop
  endfacet
  facet normal 0 0 1
    outer loop
      vertex 14.5 1.5 37
      vertex 9.5 6.5 37
      vertex 0 14.5 37
    endloop
  endfacet
  facet normal 0 0 1
    outer loop
      vertex 14.5 1.5 37
      vertex 16 1.5 37
      vertex 9.5 6.5 37
    endloop
  endfacet
  facet normal 0 0 1
    outer loop
      vertex 10.5 6.5 37
      vertex 9.5 6.5 37
      vertex 16 1.5 37
    endloop
  endfacet
  facet normal 0 0 1
    outer loop
      vertex 16 1.5 37
      vertex 14.5 14.5 37
      vertex 10.5 7.5 37
    endloop
  endfacet
  facet normal 0 0 1
    outer loop
      vertex 6.5 9.5 37
      vertex 6.5 10.5 37
      vertex 1.5 14.5 37
    endloop
  endfacet
  facet normal 0 0 1
    outer loop
      vertex 10.5 7.5 37
      vertex 9.5 9.5 37
      vertex 7.5 10.5 37
    endloop
  endfacet
  facet normal 0 0 1
    outer loop
      vertex 10.5 9.5 37
      vertex 14.5 14.5 37
      vertex 10.5 10.5 37
    endloop
  endfacet
  facet normal 0 0 1
    outer loop
      vertex 9.5 9.5 37
      vertex 9.5 10.5 37
      vertex 7.5 10.5 37
    endloop
  endfacet
  facet normal 0 0 1
    outer loop
      vertex 10.5 10.5 37
      vertex 14.5 14.5 37
      vertex 9.5 10.5 37
    endloop
  endfacet
  facet normal 0 0 1
    outer loop
      vertex 10.5 9.5 37
      vertex 10.5 7.5 37
      vertex 14.5 14.5 37
    endloop
  endfacet
  facet normal 0 0 1
    outer loop
      vertex 9.5 9.5 37
      vertex 10.5 7.5 37
      vertex 10.5 9.5 37
    endloop
  endfacet
  facet normal 0 0 1
    outer loop
      vertex 1.5 16 37
      vertex 1.5 14.5 37
      vertex 14.5 16 37
    endloop
  endfacet
  facet normal 0 0 1
    outer loop
      vertex 7.5 9.5 37
      vertex 6.5 9.5 37
      vertex 9.5 7.5 37
    endloop
  endfacet
  facet normal 0 1 0
    outer loop
      vertex 0 3 3
      vertex 0 3 26
      vertex 3 3 3
    endloop
  endfacet
  facet normal 0 1 0
    outer loop
      vertex 3 3 3
      vertex 0 3 26
      vertex 3 3 26
    endloop
  endfacet
  facet normal 0 0 -1
    outer loop
      vertex 0 3 26
      vertex 0 22 26
      vertex 3 3 26
    endloop
  endfacet
  facet normal 0 0 -1
    outer loop
      vertex 3 3 26
      vertex 0 22 26
      vertex 3 22 26
    endloop
  endfacet
  facet normal 0 0 -1
    outer loop
      vertex 3 22 26
      vertex 3 25 26
      vertex 22 25 26
    endloop
  endfacet
  facet normal 0 0 -1
    outer loop
      vertex 3 22 26
      vertex 22 25 26
      vertex 3 3 26
    endloop
  endfacet
  facet normal 0 0 -1
    outer loop
      vertex 3 3 26
      vertex 22 25 26
      vertex 22 22 26
    endloop
  endfacet
  facet normal 0 0 -1
    outer loop
      vertex 3 3 26
      vertex 22 22 26
      vertex 25 22 26
    endloop
  endfacet
  facet normal 0 0 -1
    outer loop
      vertex 22 3 26
      vertex 25 22 26
      vertex 25 3 26
    endloop
  endfacet
  facet normal 0 0 -1
    outer loop
      vertex 3 3 26
      vertex 25 22 26
      vertex 22 3 26
    endloop
  endfacet
  facet normal 0 0 -1
    outer loop
      vertex 22 3 26
      vertex 22 0 26
      vertex 3 3 26
    endloop
  endfacet
  facet normal 0 0 -1
    outer loop
      vertex 3 3 26
      vertex 22 0 26
      vertex 3 0 26
    endloop
  endfacet
  facet normal 0 -1 0
    outer loop
      vertex 0 22 26
      vertex 0 22 3
      vertex 3 22 3
    endloop
  endfacet
  facet normal 0 -1 0
    outer loop
      vertex 3 22 26
      vertex 0 22 26
      vertex 3 22 3
    endloop
  endfacet
  facet normal 0 0 1
    outer loop
      vertex 22 3 3
      vertex 25 3 3
      vertex 0 22 3
    endloop
  endfacet
  facet normal 0 0 1
    outer loop
      vertex 0 22 3
      vertex 0 3 3
      vertex 3 3 3
    endloop
  endfacet
  facet normal 0 0 1
    outer loop
      vertex 22 0 3
      vertex 0 22 3
      vertex 3 3 3
    endloop
  endfacet
  facet normal 0 0 1
    outer loop
      vertex 3 0 3
      vertex 22 0 3
      vertex 3 3 3
    endloop
  endfacet
  facet normal 0 0 1
    outer loop
      vertex 22 0 3
      vertex 22 3 3
      vertex 0 22 3
    endloop
  endfacet
  facet normal 0 0 1
    outer loop
      vertex 25 3 3
      vertex 22 22 3
      vertex 3 22 3
    endloop
  endfacet
  facet normal 0 0 1
    outer loop
      vertex 25 3 3
      vertex 25 22 3
      vertex 22 22 3
    endloop
  endfacet
  facet normal 0 0 1
    outer loop
      vertex 25 3 3
      vertex 3 22 3
      vertex 0 22 3
    endloop
  endfacet
  facet normal 0 0 1
    outer loop
      vertex 22 22 3
      vertex 22 25 3
      vertex 3 22 3
    endloop
  endfacet
  facet normal 0 0 1
    outer loop
      vertex 3 25 3
      vertex 3 22 3
      vertex 22 25 3
    endloop
  endfacet
  facet normal 1 0 0
    outer loop
      vertex 4 0 73
      vertex 4 0 72.5
      vertex 4 4 72.5
    endloop
  endfacet
  facet normal 1 0 0
    outer loop
      vertex 4 4 73
      vertex 4 0 73
      vertex 4 4 72.5
    endloop
  endfacet
  facet normal 1 0 0
    outer loop
      vertex 3.975 0 72.5
      vertex 3.975 0 69
      vertex 3.975 0.375 69
    endloop
  endfacet
  facet normal 1 0 0
    outer loop
      vertex 3.975 0.375 72.5
      vertex 3.975 0 72.5
      vertex 3.975 0.375 69
    endloop
  endfacet
  facet normal 1 0 0
    outer loop
      vertex 4 0 69
      vertex 4 0 68.5
      vertex 4 4 68.5
    endloop
  endfacet
  facet normal 1 0 0
    outer loop
      vertex 4 4 69
      vertex 4 0 69
      vertex 4 4 68.5
    endloop
  endfacet
  facet normal 1 0 0
    outer loop
      vertex 5 0 68.5
      vertex 5 0 68
      vertex 5 5 68
    endloop
  endfacet
  facet normal 1 0 0
    outer loop
      vertex 5 5 68.5
      vertex 5 0 68.5
      vertex 5 5 68
    endloop
  endfacet
  facet normal 1 0 0
    outer loop
      vertex 6 0 68
      vertex 6 0 67.5
      vertex 6 6 67.5
    endloop
  endfacet
  facet normal 1 0 0
    outer loop
      vertex 6 6 68
      vertex 6 0 68
      vertex 6 6 67.5
    endloop
  endfacet
  facet normal 1 0 0
    outer loop
      vertex 7 0 67.5
      vertex 7 0 67
      vertex 7 7 67
    endloop
  endfacet
  facet normal 1 0 0
    outer loop
      vertex 7 7 67.5
      vertex 7 0 67.5
      vertex 7 7 67
    endloop
  endfacet
  facet normal 1 0 0
    outer loop
      vertex 8.1 0 67
      vertex 8.1 0 66
      vertex 8.1 8.1 66
    endloop
  endfacet
  facet normal 1 0 0
    outer loop
      vertex 8.1 8.1 67
      vertex 8.1 0 67
      vertex 8.1 8.1 66
    endloop
  endfacet
  facet normal 1 0 0
    outer loop
      vertex 8.05 0 66
      vertex 8.05 0 58
      vertex 8.05 0.75 58
    endloop
  endfacet
  facet normal 1 0 0
    outer loop
      vertex 8.05 0.75 66
      vertex 8.05 0 66
      vertex 8.05 0.75 58
    endloop
  endfacet
  facet normal 1 0 0
    outer loop
      vertex 10 0 58
      vertex 10 0 57
      vertex 10 10 57
    endloop
  endfacet
  facet normal 1 0 0
    outer loop
      vertex 10 10 58
      vertex 10 0 58
      vertex 10 10 57
    endloop
  endfacet
  facet normal 1 0 0
    outer loop
      vertex 12 0 57
      vertex 12 0 56
      vertex 12 12 56
    endloop
  endfacet
  facet normal 1 0 0
    outer loop
      vertex 12 12 57
      vertex 12 0 57
      vertex 12 12 56
    endloop
  endfacet
  facet normal 1 0 0
    outer loop
      vertex 14 0 56
      vertex 14 0 55
      vertex 14 14 55
    endloop
  endfacet
  facet normal 1 0 0
    outer loop
      vertex 14 14 56
      vertex 14 0 56
      vertex 14 14 55
    endloop
  endfacet
  facet normal 1 0 0
    outer loop
      vertex 16 1.5 37
      vertex 16 0 35
      vertex 16 16 35
    endloop
  endfacet
  facet normal 1 0 0
    outer loop
      vertex 16 0 55
      vertex 16 0 35
      vertex 16 1.5 37
    endloop
  endfacet
  facet normal 1 0 0
    outer loop
      vertex 16 1.5 53
      vertex 16 14.5 53
      vertex 16 0 55
    endloop
  endfacet
  facet normal 1 0 0
    outer loop
      vertex 16 0 55
      vertex 16 1.5 37
      vertex 16 1.5 53
    endloop
  endfacet
  facet normal 1 0 0
    outer loop
      vertex 16 16 55
      vertex 16 14.5 53
      vertex 16 16 35
    endloop
  endfacet
  facet normal 1 0 0
    outer loop
      vertex 16 16 55
      vertex 16 0 55
      vertex 16 14.5 53
    endloop
  endfacet
  facet normal 1 0 0
    outer loop
      vertex 16 14.5 53
      vertex 16 14.5 37
      vertex 16 16 35
    endloop
  endfacet
  facet normal 1 0 0
    outer loop
      vertex 16 14.5 37
      vertex 16 1.5 37
      vertex 16 16 35
    endloop
  endfacet
  facet normal 1 0 0
    outer loop
      vertex 18 0 35
      vertex 18 0 33
      vertex 18 18 33
    endloop
  endfacet
  facet normal 1 0 0
    outer loop
      vertex 18 18 35
      vertex 18 0 35
      vertex 18 18 33
    endloop
  endfacet
  facet normal 1 0 0
    outer loop
      vertex 20 0 33
      vertex 20 0 31
      vertex 20 20 31
    endloop
  endfacet
  facet normal 1 0 0
    outer loop
      vertex 20 20 33
      vertex 20 0 33
      vertex 20 20 31
    endloop
  endfacet
  facet normal 1 0 0
    outer loop
      vertex 22.5 0 31
      vertex 22.5 0 29
      vertex 22.5 22.5 29
    endloop
  endfacet
  facet normal 1 0 0
    outer loop
      vertex 22.5 22.5 31
      vertex 22.5 0 31
      vertex 22.5 22.5 29
    endloop
  endfacet
  facet normal 1 0 0
    outer loop
      vertex 25 3 3
      vertex 25 0 0
      vertex 25 25 0
    endloop
  endfacet
  facet normal 1 0 0
    outer loop
      vertex 25 22 3
      vertex 25 3 3
      vertex 25 25 0
    endloop
  endfacet
  facet normal 1 0 0
    outer loop
      vertex 25 0 29
      vertex 25 0 0
      vertex 25 3 3
    endloop
  endfacet
  facet normal 1 0 0
    outer loop
      vertex 25 25 29
      vertex 25 0 29
      vertex 25 3 26
    endloop
  endfacet
  facet normal 1 0 0
    outer loop
      vertex 25 25 29
      vertex 25 22 26
      vertex 25 25 0
    endloop
  endfacet
  facet normal 1 0 0
    outer loop
      vertex 25 25 29
      vertex 25 3 26
      vertex 25 22 26
    endloop
  endfacet
  facet normal 1 0 0
    outer loop
      vertex 25 22 26
      vertex 25 22 3
      vertex 25 25 0
    endloop
  endfacet
  facet normal 1 0 0
    outer loop
      vertex 25 3 3
      vertex 25 3 26
      vertex 25 0 29
    endloop
  endfacet
  facet normal 1 0 0
    outer loop
      vertex 0.375 0 72.5
      vertex 0.375 0 69
      vertex 0.375 0.375 69
    endloop
  endfacet
  facet normal 1 0 0
    outer loop
      vertex 0.375 0.375 72.5
      vertex 0.375 0 72.5
      vertex 0.375 0.375 69
    endloop
  endfacet
  facet normal -1 0 0
    outer loop
      vertex 3.6 0 69
      vertex 3.6 0 72.5
      vertex 3.6 0.375 69
    endloop
  endfacet
  facet normal -1 0 0
    outer loop
      vertex 3.6 0.375 69
      vertex 3.6 0 72.5
      vertex 3.6 0.375 72.5
    endloop
  endfacet
  facet normal 1 0 0
    outer loop
      vertex 0.75 0 66
      vertex 0.75 0 59
      vertex 0.75 0.75 59
    endloop
  endfacet
  facet normal 1 0 0
    outer loop
      vertex 0.75 0.75 66
      vertex 0.75 0 66
      vertex 0.75 0.75 59
    endloop
  endfacet
  facet normal -1 0 0
    outer loop
      vertex 7.3 0 59
      vertex 7.3 0 66
      vertex 7.3 0.75 59
    endloop
  endfacet
  facet normal -1 0 0
    outer loop
      vertex 7.3 0.75 59
      vertex 7.3 0 66
      vertex 7.3 0.75 66
    endloop
  endfacet
  facet normal 1 0 0
    outer loop
      vertex 1.5 0 53
      vertex 1.5 0 37
      vertex 1.5 1.5 37
    endloop
  endfacet
  facet normal 1 0 0
    outer loop
      vertex 1.5 1.5 53
      vertex 1.5 0 53
      vertex 1.5 1.5 37
    endloop
  endfacet
  facet normal -1 0 0
    outer loop
      vertex 14.5 0 37
      vertex 14.5 0 53
      vertex 14.5 1.5 37
    endloop
  endfacet
  facet normal -1 0 0
    outer loop
      vertex 14.5 1.5 37
      vertex 14.5 0 53
      vertex 14.5 1.5 53
    endloop
  endfacet
  facet normal 1 0 0
    outer loop
      vertex 3 0 26
      vertex 3 0 3
      vertex 3 3 3
    endloop
  endfacet
  facet normal 1 0 0
    outer loop
      vertex 3 3 26
      vertex 3 0 26
      vertex 3 3 3
    endloop
  endfacet
  facet normal -1 0 0
    outer loop
      vertex 22 0 3
      vertex 22 0 26
      vertex 22 3 3
    endloop
  endfacet
  facet normal -1 0 0
    outer loop
      vertex 22 3 3
      vertex 22 0 26
      vertex 22 3 26
    endloop
  endfacet
  facet normal 1 0 0
    outer loop
      vertex 3 22 26
      vertex 3 22 3
      vertex 3 25 3
    endloop
  endfacet
  facet normal 1 0 0
    outer loop
      vertex 3 25 26
      vertex 3 22 26
      vertex 3 25 3
    endloop
  endfacet
  facet normal -1 0 0
    outer loop
      vertex 22 22 3
      vertex 22 22 26
      vertex 22 25 3
    endloop
  endfacet
  facet normal -1 0 0
    outer loop
      vertex 22 25 3
      vertex 22 22 26
      vertex 22 25 26
    endloop
  endfacet
  facet normal 1 0 0
    outer loop
      vertex 1.5 14.5 53
      vertex 1.5 14.5 37
      vertex 1.5 16 37
    endloop
  endfacet
  facet normal 1 0 0
    outer loop
      vertex 1.5 16 53
      vertex 1.5 14.5 53
      vertex 1.5 16 37
    endloop
  endfacet
  facet normal -1 0 0
    outer loop
      vertex 14.5 14.5 37
      vertex 14.5 14.5 53
      vertex 14.5 16 37
    endloop
  endfacet
  facet normal -1 0 0
    outer loop
      vertex 14.5 16 37
      vertex 14.5 14.5 53
      vertex 14.5 16 53
    endloop
  endfacet
  facet normal 0 1 0
    outer loop
      vertex 7.3 0.75 59
      vertex 7.3 0.75 66
      vertex 8 0.75 59
    endloop
  endfacet
  facet normal 0 1 0
    outer loop
      vertex 8 0.75 59
      vertex 7.3 0.75 66
      vertex 8.05 0.75 66
    endloop
  endfacet
  facet normal 0 1 0
    outer loop
      vertex 8 0.75 59
      vertex 8.05 0.75 66
      vertex 8.05 0.75 58
    endloop
  endfacet
  facet normal 0 1 0
    outer loop
      vertex 8 0.75 59
      vertex 8.05 0.75 58
      vertex 8 0.75 58
    endloop
  endfacet
  facet normal 1 0 0
    outer loop
      vertex 8 0.75 59
      vertex 8 0.75 58
      vertex 8 7.3 58
    endloop
  endfacet
  facet normal 1 0 0
    outer loop
      vertex 8 7.3 59
      vertex 8 0.75 59
      vertex 8 7.3 58
    endloop
  endfacet
  facet normal 0 -1 0
    outer loop
      vertex 7.3 7.3 66
      vertex 7.3 7.3 59
      vertex 8 7.3 59
    endloop
  endfacet
  facet normal 0 -1 0
    outer loop
      vertex 8.05 7.3 66
      vertex 7.3 7.3 66
      vertex 8 7.3 59
    endloop
  endfacet
  facet normal 0 -1 0
    outer loop
      vertex 8 7.3 58
      vertex 8.05 7.3 58
      vertex 8 7.3 59
    endloop
  endfacet
  facet normal 0 -1 0
    outer loop
      vertex 8.05 7.3 58
      vertex 8.05 7.3 66
      vertex 8 7.3 59
    endloop
  endfacet
  facet normal 1 0 0
    outer loop
      vertex 8.05 7.3 66
      vertex 8.05 7.3 58
      vertex 8.05 8.05 58
    endloop
  endfacet
  facet normal 1 0 0
    outer loop
      vertex 8.05 8.05 66
      vertex 8.05 7.3 66
      vertex 8.05 8.05 58
    endloop
  endfacet
  facet normal 0 1 0
    outer loop
      vertex 7.3 8.05 58
      vertex 7.3 8.05 66
      vertex 8.05 8.05 58
    endloop
  endfacet
  facet normal 0 1 0
    outer loop
      vertex 8.05 8.05 58
      vertex 7.3 8.05 66
      vertex 8.05 8.05 66
    endloop
  endfacet
  facet normal -1 0 0
    outer loop
      vertex 7.3 7.3 59
      vertex 7.3 7.3 66
      vertex 7.3 8 59
    endloop
  endfacet
  facet normal -1 0 0
    outer loop
      vertex 7.3 8 59
      vertex 7.3 7.3 66
      vertex 7.3 8.05 66
    endloop
  endfacet
  facet normal -1 0 0
    outer loop
      vertex 7.3 8 59
      vertex 7.3 8.05 66
      vertex 7.3 8.05 58
    endloop
  endfacet
  facet normal -1 0 0
    outer loop
      vertex 7.3 8 59
      vertex 7.3 8.05 58
      vertex 7.3 8 58
    endloop
  endfacet
  facet normal 0 1 0
    outer loop
      vertex 0.75 8 58
      vertex 0.75 8 59
      vertex 7.3 8 58
    endloop
  endfacet
  facet normal 0 1 0
    outer loop
      vertex 7.3 8 58
      vertex 0.75 8 59
      vertex 7.3 8 59
    endloop
  endfacet
  facet normal 1 0 0
    outer loop
      vertex 0.75 7.3 66
      vertex 0.75 7.3 59
      vertex 0.75 8 59
    endloop
  endfacet
  facet normal 1 0 0
    outer loop
      vertex 0.75 8.05 66
      vertex 0.75 7.3 66
      vertex 0.75 8 59
    endloop
  endfacet
  facet normal 1 0 0
    outer loop
      vertex 0.75 8 58
      vertex 0.75 8.05 58
      vertex 0.75 8 59
    endloop
  endfacet
  facet normal 1 0 0
    outer loop
      vertex 0.75 8.05 58
      vertex 0.75 8.05 66
      vertex 0.75 8 59
    endloop
  endfacet
  facet normal 1 0 0
    outer loop
      vertex 0.375 3.6 72.5
      vertex 0.375 3.6 69
      vertex 0.375 3.975 69
    endloop
  endfacet
  facet normal 1 0 0
    outer loop
      vertex 0.375 3.975 72.5
      vertex 0.375 3.6 72.5
      vertex 0.375 3.975 69
    endloop
  endfacet
  facet normal 0 1 0
    outer loop
      vertex 3.6 0.375 69
      vertex 3.6 0.375 72.5
      vertex 3.975 0.375 69
    endloop
  endfacet
  facet normal 0 1 0
    outer loop
      vertex 3.975 0.375 69
      vertex 3.6 0.375 72.5
      vertex 3.975 0.375 72.5
    endloop
  endfacet
  facet normal -1 0 0
    outer loop
      vertex 1.625 1.625 69
      vertex 1.625 1.625 71.25
      vertex 1.625 1.875 69
    endloop
  endfacet
  facet normal -1 0 0
    outer loop
      vertex 1.625 1.875 70.25
      vertex 1.625 1.625 71.25
      vertex 1.625 1.875 71.25
    endloop
  endfacet
  facet normal -1 0 0
    outer loop
      vertex 1.625 1.875 69
      vertex 1.625 1.625 71.25
      vertex 1.625 1.875 70
    endloop
  endfacet
  facet normal -1 0 0
    outer loop
      vertex 1.625 2.6 70
      vertex 1.625 2.625 70.25
      vertex 1.625 2.625 70
    endloop
  endfacet
  facet normal -1 0 0
    outer loop
      vertex 1.625 2.35 70
      vertex 1.625 2.625 70.25
      vertex 1.625 2.6 70
    endloop
  endfacet
  facet normal -1 0 0
    outer loop
      vertex 1.625 2.35 70
      vertex 1.625 2.6 70
      vertex 1.625 2.35 69
    endloop
  endfacet
  facet normal -1 0 0
    outer loop
      vertex 1.625 1.875 70.25
      vertex 1.625 2.625 70.25
      vertex 1.625 2.35 70
    endloop
  endfacet
  facet normal -1 0 0
    outer loop
      vertex 1.625 1.875 70.25
      vertex 1.625 2.35 70
      vertex 1.625 1.875 70
    endloop
  endfacet
  facet normal -1 0 0
    outer loop
      vertex 1.625 1.875 70.25
      vertex 1.625 1.875 70
      vertex 1.625 1.625 71.25
    endloop
  endfacet
  facet normal -1 0 0
    outer loop
      vertex 1.625 2.6 69
      vertex 1.625 2.35 69
      vertex 1.625 2.6 70
    endloop
  endfacet
  facet normal 0 -1 0
    outer loop
      vertex 1.625 1.625 71.25
      vertex 1.625 1.625 69
      vertex 1.875 1.625 69
    endloop
  endfacet
  facet normal 0 -1 0
    outer loop
      vertex 2.35 1.625 70
      vertex 1.625 1.625 71.25
      vertex 1.875 1.625 70
    endloop
  endfacet
  facet normal 0 -1 0
    outer loop
      vertex 1.875 1.625 70
      vertex 1.625 1.625 71.25
      vertex 1.875 1.625 69
    endloop
  endfacet
  facet normal 0 -1 0
    outer loop
      vertex 2.6 1.625 70
      vertex 1.625 1.625 71.25
      vertex 2.35 1.625 70
    endloop
  endfacet
  facet normal 0 -1 0
    outer loop
      vertex 2.6 1.625 69
      vertex 2.35 1.625 70
      vertex 2.35 1.625 69
    endloop
  endfacet
  facet normal 0 -1 0
    outer loop
      vertex 2.6 1.625 70
      vertex 2.35 1.625 70
      vertex 2.6 1.625 69
    endloop
  endfacet
  facet normal 0 -1 0
    outer loop
      vertex 2.625 1.625 70
      vertex 1.625 1.625 71.25
      vertex 2.6 1.625 70
    endloop
  endfacet
  facet normal 0 -1 0
    outer loop
      vertex 2.625 1.625 71.25
      vertex 1.625 1.625 71.25
      vertex 2.625 1.625 70
    endloop
  endfacet
  facet normal 1 0 0
    outer loop
      vertex 1.875 1.625 70
      vertex 1.875 1.625 69
      vertex 1.875 1.875 69
    endloop
  endfacet
  facet normal 1 0 0
    outer loop
      vertex 1.875 1.875 70
      vertex 1.875 1.625 70
      vertex 1.875 1.875 69
    endloop
  endfacet
  facet normal 0 1 0
    outer loop
      vertex 1.625 1.875 69
      vertex 1.625 1.875 70
      vertex 1.875 1.875 69
    endloop
  endfacet
  facet normal 0 1 0
    outer loop
      vertex 1.875 1.875 69
      vertex 1.625 1.875 70
      vertex 1.875 1.875 70
    endloop
  endfacet
  facet normal 0 -1 0
    outer loop
      vertex 1.625 2.35 70
      vertex 1.625 2.35 69
      vertex 1.875 2.35 69
    endloop
  endfacet
  facet normal 0 -1 0
    outer loop
      vertex 1.875 2.35 70
      vertex 1.625 2.35 70
      vertex 1.875 2.35 69
    endloop
  endfacet
  facet normal 1 0 0
    outer loop
      vertex 1.875 2.35 70
      vertex 1.875 2.35 69
      vertex 1.875 2.6 69
    endloop
  endfacet
  facet normal 1 0 0
    outer loop
      vertex 1.875 2.6 70
      vertex 1.875 2.35 70
      vertex 1.875 2.6 69
    endloop
  endfacet
  facet normal 0 1 0
    outer loop
      vertex 1.625 2.6 69
      vertex 1.625 2.6 70
      vertex 1.875 2.6 69
    endloop
  endfacet
  facet normal 0 1 0
    outer loop
      vertex 1.875 2.6 69
      vertex 1.625 2.6 70
      vertex 1.875 2.6 70
    endloop
  endfacet
  facet normal -1 0 0
    outer loop
      vertex 2.35 1.625 69
      vertex 2.35 1.625 70
      vertex 2.35 1.875 69
    endloop
  endfacet
  facet normal -1 0 0
    outer loop
      vertex 2.35 1.875 69
      vertex 2.35 1.625 70
      vertex 2.35 1.875 70
    endloop
  endfacet
  facet normal 1 0 0
    outer loop
      vertex 2.6 1.625 70
      vertex 2.6 1.625 69
      vertex 2.6 1.875 69
    endloop
  endfacet
  facet normal 1 0 0
    outer loop
      vertex 2.6 1.875 70
      vertex 2.6 1.625 70
      vertex 2.6 1.875 69
    endloop
  endfacet
  facet normal 0 1 0
    outer loop
      vertex 2.35 1.875 69
      vertex 2.35 1.875 70
      vertex 2.6 1.875 69
    endloop
  endfacet
  facet normal 0 1 0
    outer loop
      vertex 2.6 1.875 69
      vertex 2.35 1.875 70
      vertex 2.6 1.875 70
    endloop
  endfacet
  facet normal -1 0 0
    outer loop
      vertex 2.35 2.35 69
      vertex 2.35 2.35 70
      vertex 2.35 2.6 69
    endloop
  endfacet
  facet normal -1 0 0
    outer loop
      vertex 2.35 2.6 69
      vertex 2.35 2.35 70
      vertex 2.35 2.6 70
    endloop
  endfacet
  facet normal 0 -1 0
    outer loop
      vertex 2.35 2.35 70
      vertex 2.35 2.35 69
      vertex 2.6 2.35 69
    endloop
  endfacet
  facet normal 0 -1 0
    outer loop
      vertex 2.6 2.35 70
      vertex 2.35 2.35 70
      vertex 2.6 2.35 69
    endloop
  endfacet
  facet normal 1 0 0
    outer loop
      vertex 2.6 2.35 70
      vertex 2.6 2.35 69
      vertex 2.6 2.6 69
    endloop
  endfacet
  facet normal 1 0 0
    outer loop
      vertex 2.6 2.6 70
      vertex 2.6 2.35 70
      vertex 2.6 2.6 69
    endloop
  endfacet
  facet normal 0 1 0
    outer loop
      vertex 2.35 2.6 69
      vertex 2.35 2.6 70
      vertex 2.6 2.6 69
    endloop
  endfacet
  facet normal 0 1 0
    outer loop
      vertex 2.6 2.6 69
      vertex 2.35 2.6 70
      vertex 2.6 2.6 70
    endloop
  endfacet
  facet normal -1 0 0
    outer loop
      vertex 3.6 3.6 69
      vertex 3.6 3.6 72.5
      vertex 3.6 3.975 69
    endloop
  endfacet
  facet normal -1 0 0
    outer loop
      vertex 3.6 3.975 69
      vertex 3.6 3.6 72.5
      vertex 3.6 3.975 72.5
    endloop
  endfacet
  facet normal 0 -1 0
    outer loop
      vertex 3.6 3.6 72.5
      vertex 3.6 3.6 69
      vertex 3.975 3.6 69
    endloop
  endfacet
  facet normal 0 -1 0
    outer loop
      vertex 3.975 3.6 72.5
      vertex 3.6 3.6 72.5
      vertex 3.975 3.6 69
    endloop
  endfacet
  facet normal 1 0 0
    outer loop
      vertex 3.975 3.6 72.5
      vertex 3.975 3.6 69
      vertex 3.975 3.975 69
    endloop
  endfacet
  facet normal 1 0 0
    outer loop
      vertex 3.975 3.975 72.5
      vertex 3.975 3.6 72.5
      vertex 3.975 3.975 69
    endloop
  endfacet
  facet normal 0 1 0
    outer loop
      vertex 3.6 3.975 69
      vertex 3.6 3.975 72.5
      vertex 3.975 3.975 69
    endloop
  endfacet
  facet normal 0 1 0
    outer loop
      vertex 3.975 3.975 69
      vertex 3.6 3.975 72.5
      vertex 3.975 3.975 72.5
    endloop
  endfacet
  facet normal -1 0 0
    outer loop
      vertex 3.25 3.25 59
      vertex 3.25 3.25 60.5
      vertex 3.25 3.75 59
    endloop
  endfacet
  facet normal -1 0 0
    outer loop
      vertex 3.25 3.75 60
      vertex 3.25 3.25 60.5
      vertex 3.25 4.75 60
    endloop
  endfacet
  facet normal -1 0 0
    outer loop
      vertex 3.25 4.75 59
      vertex 3.25 5.25 60.5
      vertex 3.25 5.25 59
    endloop
  endfacet
  facet normal -1 0 0
    outer loop
      vertex 3.25 4.75 60
      vertex 3.25 5.25 60.5
      vertex 3.25 4.75 59
    endloop
  endfacet
  facet normal -1 0 0
    outer loop
      vertex 3.25 3.25 60.5
      vertex 3.25 5.25 60.5
      vertex 3.25 4.75 60
    endloop
  endfacet
  facet normal -1 0 0
    outer loop
      vertex 3.25 3.75 59
      vertex 3.25 3.25 60.5
      vertex 3.25 3.75 60
    endloop
  endfacet
  facet normal 0 -1 0
    outer loop
      vertex 3.25 3.25 60.5
      vertex 3.25 3.25 59
      vertex 3.75 3.25 59
    endloop
  endfacet
  facet normal 0 -1 0
    outer loop
      vertex 4.75 3.25 60
      vertex 3.25 3.25 60.5
      vertex 3.75 3.25 60
    endloop
  endfacet
  facet normal 0 -1 0
    outer loop
      vertex 3.75 3.25 60
      vertex 3.25 3.25 60.5
      vertex 3.75 3.25 59
    endloop
  endfacet
  facet normal 0 -1 0
    outer loop
      vertex 4.75 3.25 60.5
      vertex 3.25 3.25 60.5
      vertex 4.75 3.25 60
    endloop
  endfacet
  facet normal 0 -1 0
    outer loop
      vertex 5.25 3.25 59
      vertex 4.75 3.25 60
      vertex 4.75 3.25 59
    endloop
  endfacet
  facet normal 0 -1 0
    outer loop
      vertex 5.25 3.25 62.5
      vertex 4.75 3.25 60
      vertex 5.25 3.25 59
    endloop
  endfacet
  facet normal 0 -1 0
    outer loop
      vertex 5.25 3.25 62.5
      vertex 4.75 3.25 60.5
      vertex 4.75 3.25 60
    endloop
  endfacet
  facet normal 0 -1 0
    outer loop
      vertex 4.75 3.25 62.5
      vertex 4.75 3.25 60.5
      vertex 5.25 3.25 62.5
    endloop
  endfacet
  facet normal 1 0 0
    outer loop
      vertex 3.75 3.25 60
      vertex 3.75 3.25 59
      vertex 3.75 3.75 59
    endloop
  endfacet
  facet normal 1 0 0
    outer loop
      vertex 3.75 3.75 60
      vertex 3.75 3.25 60
      vertex 3.75 3.75 59
    endloop
  endfacet
  facet normal 0 1 0
    outer loop
      vertex 3.25 3.75 59
      vertex 3.25 3.75 60
      vertex 3.75 3.75 59
    endloop
  endfacet
  facet normal 0 1 0
    outer loop
      vertex 3.75 3.75 59
      vertex 3.25 3.75 60
      vertex 3.75 3.75 60
    endloop
  endfacet
  facet normal 0 -1 0
    outer loop
      vertex 3.25 4.75 60
      vertex 3.25 4.75 59
      vertex 3.75 4.75 59
    endloop
  endfacet
  facet normal 0 -1 0
    outer loop
      vertex 3.75 4.75 60
      vertex 3.25 4.75 60
      vertex 3.75 4.75 59
    endloop
  endfacet
  facet normal 1 0 0
    outer loop
      vertex 3.75 4.75 60
      vertex 3.75 4.75 59
      vertex 3.75 5.25 59
    endloop
  endfacet
  facet normal 1 0 0
    outer loop
      vertex 3.75 5.25 60
      vertex 3.75 4.75 60
      vertex 3.75 5.25 59
    endloop
  endfacet
  facet normal 0 1 0
    outer loop
      vertex 3.25 5.25 59
      vertex 3.25 5.25 60.5
      vertex 3.75 5.25 59
    endloop
  endfacet
  facet normal 0 1 0
    outer loop
      vertex 3.75 5.25 60
      vertex 3.25 5.25 60.5
      vertex 4.75 5.25 60.5
    endloop
  endfacet
  facet normal 0 1 0
    outer loop
      vertex 4.75 5.25 60.5
      vertex 4.75 5.25 62.5
      vertex 5.25 5.25 62.5
    endloop
  endfacet
  facet normal 0 1 0
    outer loop
      vertex 4.75 5.25 60.5
      vertex 5.25 5.25 62.5
      vertex 5.25 5.25 59
    endloop
  endfacet
  facet normal 0 1 0
    outer loop
      vertex 4.75 5.25 60
      vertex 5.25 5.25 59
      vertex 4.75 5.25 59
    endloop
  endfacet
  facet normal 0 1 0
    outer loop
      vertex 4.75 5.25 60.5
      vertex 5.25 5.25 59
      vertex 4.75 5.25 60
    endloop
  endfacet
  facet normal 0 1 0
    outer loop
      vertex 3.75 5.25 59
      vertex 3.25 5.25 60.5
      vertex 3.75 5.25 60
    endloop
  endfacet
  facet normal 0 1 0
    outer loop
      vertex 3.75 5.25 60
      vertex 4.75 5.25 60.5
      vertex 4.75 5.25 60
    endloop
  endfacet
  facet normal -1 0 0
    outer loop
      vertex 4.75 3.25 59
      vertex 4.75 3.25 60
      vertex 4.75 3.75 59
    endloop
  endfacet
  facet normal -1 0 0
    outer loop
      vertex 4.75 3.75 59
      vertex 4.75 3.25 60
      vertex 4.75 3.75 60
    endloop
  endfacet
  facet normal 1 0 0
    outer loop
      vertex 5.25 3.25 62.5
      vertex 5.25 3.25 59
      vertex 5.25 3.75 59
    endloop
  endfacet
  facet normal 1 0 0
    outer loop
      vertex 5.25 4.75 60
      vertex 5.25 3.25 62.5
      vertex 5.25 3.75 60
    endloop
  endfacet
  facet normal 1 0 0
    outer loop
      vertex 5.25 3.75 60
      vertex 5.25 3.25 62.5
      vertex 5.25 3.75 59
    endloop
  endfacet
  facet normal 1 0 0
    outer loop
      vertex 5.25 5.25 62.5
      vertex 5.25 3.25 62.5
      vertex 5.25 4.75 60
    endloop
  endfacet
  facet normal 1 0 0
    outer loop
      vertex 5.25 5.25 59
      vertex 5.25 4.75 60
      vertex 5.25 4.75 59
    endloop
  endfacet
  facet normal 1 0 0
    outer loop
      vertex 5.25 5.25 62.5
      vertex 5.25 4.75 60
      vertex 5.25 5.25 59
    endloop
  endfacet
  facet normal 0 1 0
    outer loop
      vertex 4.75 3.75 59
      vertex 4.75 3.75 60
      vertex 5.25 3.75 59
    endloop
  endfacet
  facet normal 0 1 0
    outer loop
      vertex 5.25 3.75 59
      vertex 4.75 3.75 60
      vertex 5.25 3.75 60
    endloop
  endfacet
  facet normal -1 0 0
    outer loop
      vertex 4.75 4.75 59
      vertex 4.75 4.75 60
      vertex 4.75 5.25 59
    endloop
  endfacet
  facet normal -1 0 0
    outer loop
      vertex 4.75 5.25 59
      vertex 4.75 4.75 60
      vertex 4.75 5.25 60
    endloop
  endfacet
  facet normal 0 -1 0
    outer loop
      vertex 4.75 4.75 60
      vertex 4.75 4.75 59
      vertex 5.25 4.75 59
    endloop
  endfacet
  facet normal 0 -1 0
    outer loop
      vertex 5.25 4.75 60
      vertex 4.75 4.75 60
      vertex 5.25 4.75 59
    endloop
  endfacet
  facet normal 0 1 0
    outer loop
      vertex 14.5 1.5 37
      vertex 14.5 1.5 53
      vertex 16 1.5 37
    endloop
  endfacet
  facet normal 0 1 0
    outer loop
      vertex 16 1.5 37
      vertex 14.5 1.5 53
      vertex 16 1.5 53
    endloop
  endfacet
  facet normal 0 -1 0
    outer loop
      vertex 14.5 14.5 53
      vertex 14.5 14.5 37
      vertex 16 14.5 37
    endloop
  endfacet
  facet normal 0 -1 0
    outer loop
      vertex 16 14.5 53
      vertex 14.5 14.5 53
      vertex 16 14.5 37
    endloop
  endfacet
  facet normal -1 0 0
    outer loop
      vertex 6.5 6.5 37
      vertex 6.5 6.5 46
      vertex 6.5 7.5 37
    endloop
  endfacet
  facet normal -1 0 0
    outer loop
      vertex 6.5 7.5 41
      vertex 6.5 6.5 46
      vertex 6.5 10.5 46
    endloop
  endfacet
  facet normal -1 0 0
    outer loop
      vertex 6.5 9.5 37
      vertex 6.5 10.5 46
      vertex 6.5 10.5 37
    endloop
  endfacet
  facet normal -1 0 0
    outer loop
      vertex 6.5 9.5 41
      vertex 6.5 10.5 46
      vertex 6.5 9.5 37
    endloop
  endfacet
  facet normal -1 0 0
    outer loop
      vertex 6.5 7.5 37
      vertex 6.5 6.5 46
      vertex 6.5 7.5 41
    endloop
  endfacet
  facet normal -1 0 0
    outer loop
      vertex 6.5 7.5 41
      vertex 6.5 10.5 46
      vertex 6.5 9.5 41
    endloop
  endfacet
  facet normal 0 -1 0
    outer loop
      vertex 6.5 6.5 46
      vertex 6.5 6.5 37
      vertex 7.5 6.5 37
    endloop
  endfacet
  facet normal 0 -1 0
    outer loop
      vertex 7.5 6.5 42
      vertex 6.5 6.5 46
      vertex 7.5 6.5 41
    endloop
  endfacet
  facet normal 0 -1 0
    outer loop
      vertex 7.5 6.5 41
      vertex 6.5 6.5 46
      vertex 7.5 6.5 37
    endloop
  endfacet
  facet normal 0 -1 0
    outer loop
      vertex 7.5 6.5 42
      vertex 7.5 6.5 46
      vertex 6.5 6.5 46
    endloop
  endfacet
  facet normal 0 -1 0
    outer loop
      vertex 10.5 6.5 37
      vertex 9.5 6.5 41
      vertex 9.5 6.5 37
    endloop
  endfacet
  facet normal 0 -1 0
    outer loop
      vertex 10.5 6.5 42
      vertex 9.5 6.5 41
      vertex 10.5 6.5 37
    endloop
  endfacet
  facet normal 0 -1 0
    outer loop
      vertex 9.5 6.5 41
      vertex 7.5 6.5 42
      vertex 7.5 6.5 41
    endloop
  endfacet
  facet normal 0 -1 0
    outer loop
      vertex 10.5 6.5 42
      vertex 7.5 6.5 42
      vertex 9.5 6.5 41
    endloop
  endfacet
  facet normal 1 0 0
    outer loop
      vertex 7.5 6.5 41
      vertex 7.5 6.5 37
      vertex 7.5 7.5 37
    endloop
  endfacet
  facet normal 1 0 0
    outer loop
      vertex 7.5 7.5 41
      vertex 7.5 6.5 41
      vertex 7.5 7.5 37
    endloop
  endfacet
  facet normal 0 1 0
    outer loop
      vertex 6.5 7.5 37
      vertex 6.5 7.5 41
      vertex 7.5 7.5 37
    endloop
  endfacet
  facet normal 0 1 0
    outer loop
      vertex 7.5 7.5 37
      vertex 6.5 7.5 41
      vertex 7.5 7.5 41
    endloop
  endfacet
  facet normal 0 -1 0
    outer loop
      vertex 6.5 9.5 41
      vertex 6.5 9.5 37
      vertex 7.5 9.5 37
    endloop
  endfacet
  facet normal 0 -1 0
    outer loop
      vertex 7.5 9.5 41
      vertex 6.5 9.5 41
      vertex 7.5 9.5 37
    endloop
  endfacet
  facet normal 1 0 0
    outer loop
      vertex 7.5 9.5 41
      vertex 7.5 9.5 37
      vertex 7.5 10.5 37
    endloop
  endfacet
  facet normal 1 0 0
    outer loop
      vertex 7.5 10.5 41
      vertex 7.5 9.5 41
      vertex 7.5 10.5 37
    endloop
  endfacet
  facet normal 0 1 0
    outer loop
      vertex 6.5 10.5 37
      vertex 6.5 10.5 46
      vertex 7.5 10.5 37
    endloop
  endfacet
  facet normal 0 1 0
    outer loop
      vertex 7.5 10.5 42
      vertex 6.5 10.5 46
      vertex 7.5 10.5 46
    endloop
  endfacet
  facet normal 0 1 0
    outer loop
      vertex 7.5 10.5 37
      vertex 6.5 10.5 46
      vertex 7.5 10.5 41
    endloop
  endfacet
  facet normal 0 1 0
    outer loop
      vertex 9.5 10.5 37
      vertex 10.5 10.5 42
      vertex 10.5 10.5 37
    endloop
  endfacet
  facet normal 0 1 0
    outer loop
      vertex 7.5 10.5 42
      vertex 10.5 10.5 42
      vertex 9.5 10.5 41
    endloop
  endfacet
  facet normal 0 1 0
    outer loop
      vertex 7.5 10.5 42
      vertex 9.5 10.5 41
      vertex 7.5 10.5 41
    endloop
  endfacet
  facet normal 0 1 0
    outer loop
      vertex 7.5 10.5 42
      vertex 7.5 10.5 41
      vertex 6.5 10.5 46
    endloop
  endfacet
  facet normal 0 1 0
    outer loop
      vertex 9.5 10.5 41
      vertex 10.5 10.5 42
      vertex 9.5 10.5 37
    endloop
  endfacet
  facet normal -1 0 0
    outer loop
      vertex 9.5 6.5 37
      vertex 9.5 6.5 41
      vertex 9.5 7.5 37
    endloop
  endfacet
  facet normal -1 0 0
    outer loop
      vertex 9.5 7.5 37
      vertex 9.5 6.5 41
      vertex 9.5 7.5 41
    endloop
  endfacet
  facet normal 1 0 0
    outer loop
      vertex 10.5 6.5 42
      vertex 10.5 6.5 37
      vertex 10.5 7.5 37
    endloop
  endfacet
  facet normal 1 0 0
    outer loop
      vertex 10.5 9.5 41
      vertex 10.5 6.5 42
      vertex 10.5 7.5 41
    endloop
  endfacet
  facet normal 1 0 0
    outer loop
      vertex 10.5 7.5 41
      vertex 10.5 6.5 42
      vertex 10.5 7.5 37
    endloop
  endfacet
  facet normal 1 0 0
    outer loop
      vertex 10.5 10.5 42
      vertex 10.5 6.5 42
      vertex 10.5 9.5 41
    endloop
  endfacet
  facet normal 1 0 0
    outer loop
      vertex 10.5 10.5 37
      vertex 10.5 9.5 41
      vertex 10.5 9.5 37
    endloop
  endfacet
  facet normal 1 0 0
    outer loop
      vertex 10.5 10.5 42
      vertex 10.5 9.5 41
      vertex 10.5 10.5 37
    endloop
  endfacet
  facet normal 0 1 0
    outer loop
      vertex 9.5 7.5 37
      vertex 9.5 7.5 41
      vertex 10.5 7.5 37
    endloop
  endfacet
  facet normal 0 1 0
    outer loop
      vertex 10.5 7.5 37
      vertex 9.5 7.5 41
      vertex 10.5 7.5 41
    endloop
  endfacet
  facet normal -1 0 0
    outer loop
      vertex 9.5 9.5 37
      vertex 9.5 9.5 41
      vertex 9.5 10.5 37
    endloop
  endfacet
  facet normal -1 0 0
    outer loop
      vertex 9.5 10.5 37
      vertex 9.5 9.5 41
      vertex 9.5 10.5 41
    endloop
  endfacet
  facet normal 0 -1 0
    outer loop
      vertex 9.5 9.5 41
      vertex 9.5 9.5 37
      vertex 10.5 9.5 37
    endloop
  endfacet
  facet normal 0 -1 0
    outer loop
      vertex 10.5 9.5 41
      vertex 9.5 9.5 41
      vertex 10.5 9.5 37
    endloop
  endfacet
  facet normal 0 1 0
    outer loop
      vertex 22 3 3
      vertex 22 3 26
      vertex 25 3 3
    endloop
  endfacet
  facet normal 0 1 0
    outer loop
      vertex 25 3 3
      vertex 22 3 26
      vertex 25 3 26
    endloop
  endfacet
  facet normal 0 -1 0
    outer loop
      vertex 22 22 26
      vertex 22 22 3
      vertex 25 22 3
    endloop
  endfacet
  facet normal 0 -1 0
    outer loop
      vertex 25 22 26
      vertex 22 22 26
      vertex 25 22 3
    endloop
  endfacet
  facet normal 0 0 -1
    outer loop
      vertex 1.625 1.875 70
      vertex 1.625 2.35 70
      vertex 1.875 1.875 70
    endloop
  endfacet
  facet normal 0 0 -1
    outer loop
      vertex 1.875 1.875 70
      vertex 1.625 2.35 70
      vertex 1.875 2.35 70
    endloop
  endfacet
  facet normal 0 0 -1
    outer loop
      vertex 2.35 2.35 70
      vertex 2.35 1.875 70
      vertex 1.875 1.875 70
    endloop
  endfacet
  facet normal 0 0 -1
    outer loop
      vertex 1.875 2.6 70
      vertex 1.625 2.6 70
      vertex 1.625 2.625 70
    endloop
  endfacet
  facet normal 0 0 -1
    outer loop
      vertex 1.875 2.6 70
      vertex 1.625 2.625 70
      vertex 2.625 2.625 70
    endloop
  endfacet
  facet normal 0 0 -1
    outer loop
      vertex 2.35 2.35 70
      vertex 1.875 2.35 70
      vertex 2.35 2.6 70
    endloop
  endfacet
  facet normal 0 0 -1
    outer loop
      vertex 2.6 1.875 70
      vertex 2.625 2.625 70
      vertex 2.625 1.625 70
    endloop
  endfacet
  facet normal 0 0 -1
    outer loop
      vertex 2.6 1.875 70
      vertex 2.625 1.625 70
      vertex 2.6 1.625 70
    endloop
  endfacet
  facet normal 0 0 -1
    outer loop
      vertex 2.6 2.6 70
      vertex 2.625 2.625 70
      vertex 2.6 2.35 70
    endloop
  endfacet
  facet normal 0 0 -1
    outer loop
      vertex 2.35 1.625 70
      vertex 1.875 1.875 70
      vertex 2.35 1.875 70
    endloop
  endfacet
  facet normal 0 0 -1
    outer loop
      vertex 2.6 2.35 70
      vertex 2.6 1.875 70
      vertex 2.35 1.875 70
    endloop
  endfacet
  facet normal 0 0 -1
    outer loop
      vertex 1.875 2.6 70
      vertex 2.625 2.625 70
      vertex 2.35 2.6 70
    endloop
  endfacet
  facet normal 0 0 -1
    outer loop
      vertex 1.875 2.6 70
      vertex 2.35 2.6 70
      vertex 1.875 2.35 70
    endloop
  endfacet
  facet normal 0 0 -1
    outer loop
      vertex 1.875 2.35 70
      vertex 2.35 2.35 70
      vertex 1.875 1.875 70
    endloop
  endfacet
  facet normal 0 0 -1
    outer loop
      vertex 2.625 2.625 70
      vertex 2.6 1.875 70
      vertex 2.6 2.35 70
    endloop
  endfacet
  facet normal 0 0 -1
    outer loop
      vertex 2.6 2.35 70
      vertex 2.35 1.875 70
      vertex 2.35 2.35 70
    endloop
  endfacet
  facet normal 0 0 -1
    outer loop
      vertex 2.35 2.6 70
      vertex 2.625 2.625 70
      vertex 2.6 2.6 70
    endloop
  endfacet
  facet normal 0 0 -1
    outer loop
      vertex 1.875 1.875 70
      vertex 2.35 1.625 70
      vertex 1.875 1.625 70
    endloop
  endfacet
  facet normal 0 1 0
    outer loop
      vertex 1.625 2.625 70
      vertex 1.625 2.625 70.25
      vertex 2.625 2.625 70
    endloop
  endfacet
  facet normal 0 1 0
    outer loop
      vertex 2.625 2.625 70
      vertex 1.625 2.625 70.25
      vertex 2.625 2.625 70.25
    endloop
  endfacet
  facet normal 0 0 1
    outer loop
      vertex 1.625 2.625 70.25
      vertex 1.625 1.875 70.25
      vertex 2.625 1.875 70.25
    endloop
  endfacet
  facet normal 0 0 1
    outer loop
      vertex 2.625 2.625 70.25
      vertex 1.625 2.625 70.25
      vertex 2.625 1.875 70.25
    endloop
  endfacet
  facet normal 0 1 0
    outer loop
      vertex 1.625 1.875 70.25
      vertex 1.625 1.875 71.25
      vertex 2.625 1.875 70.25
    endloop
  endfacet
  facet normal 0 1 0
    outer loop
      vertex 2.625 1.875 70.25
      vertex 1.625 1.875 71.25
      vertex 2.625 1.875 71.25
    endloop
  endfacet
  facet normal 0 0 1
    outer loop
      vertex 1.625 1.875 71.25
      vertex 1.625 1.625 71.25
      vertex 2.625 1.625 71.25
    endloop
  endfacet
  facet normal 0 0 1
    outer loop
      vertex 2.625 1.875 71.25
      vertex 1.625 1.875 71.25
      vertex 2.625 1.625 71.25
    endloop
  endfacet
  facet normal 1 0 0
    outer loop
      vertex 2.625 1.875 70.25
      vertex 2.625 1.625 70
      vertex 2.625 2.625 70
    endloop
  endfacet
  facet normal 1 0 0
    outer loop
      vertex 2.625 1.875 70.25
      vertex 2.625 1.875 71.25
      vertex 2.625 1.625 71.25
    endloop
  endfacet
  facet normal 1 0 0
    outer loop
      vertex 2.625 1.625 71.25
      vertex 2.625 1.625 70
      vertex 2.625 1.875 70.25
    endloop
  endfacet
  facet normal 1 0 0
    outer loop
      vertex 2.625 2.625 70.25
      vertex 2.625 1.875 70.25
      vertex 2.625 2.625 70
    endloop
  endfacet
  facet normal 0 0 -1
    outer loop
      vertex 3.25 3.75 60
      vertex 3.25 4.75 60
      vertex 3.75 3.75 60
    endloop
  endfacet
  facet normal 0 0 -1
    outer loop
      vertex 3.75 3.75 60
      vertex 3.25 4.75 60
      vertex 3.75 4.75 60
    endloop
  endfacet
  facet normal 0 0 -1
    outer loop
      vertex 3.75 4.75 60
      vertex 3.75 5.25 60
      vertex 4.75 5.25 60
    endloop
  endfacet
  facet normal 0 0 -1
    outer loop
      vertex 3.75 4.75 60
      vertex 4.75 5.25 60
      vertex 3.75 3.75 60
    endloop
  endfacet
  facet normal 0 0 -1
    outer loop
      vertex 3.75 3.75 60
      vertex 4.75 5.25 60
      vertex 4.75 4.75 60
    endloop
  endfacet
  facet normal 0 0 -1
    outer loop
      vertex 3.75 3.75 60
      vertex 4.75 4.75 60
      vertex 5.25 4.75 60
    endloop
  endfacet
  facet normal 0 0 -1
    outer loop
      vertex 4.75 3.75 60
      vertex 5.25 4.75 60
      vertex 5.25 3.75 60
    endloop
  endfacet
  facet normal 0 0 -1
    outer loop
      vertex 3.75 3.75 60
      vertex 5.25 4.75 60
      vertex 4.75 3.75 60
    endloop
  endfacet
  facet normal 0 0 -1
    outer loop
      vertex 4.75 3.75 60
      vertex 4.75 3.25 60
      vertex 3.75 3.75 60
    endloop
  endfacet
  facet normal 0 0 -1
    outer loop
      vertex 3.75 3.75 60
      vertex 4.75 3.25 60
      vertex 3.75 3.25 60
    endloop
  endfacet
  facet normal 0 0 1
    outer loop
      vertex 3.25 5.25 60.5
      vertex 3.25 3.25 60.5
      vertex 4.75 3.25 60.5
    endloop
  endfacet
  facet normal 0 0 1
    outer loop
      vertex 4.75 5.25 60.5
      vertex 3.25 5.25 60.5
      vertex 4.75 3.25 60.5
    endloop
  endfacet
  facet normal -1 0 0
    outer loop
      vertex 4.75 3.25 60.5
      vertex 4.75 3.25 62.5
      vertex 4.75 5.25 60.5
    endloop
  endfacet
  facet normal -1 0 0
    outer loop
      vertex 4.75 5.25 60.5
      vertex 4.75 3.25 62.5
      vertex 4.75 5.25 62.5
    endloop
  endfacet
  facet normal 0 0 1
    outer loop
      vertex 4.75 5.25 62.5
      vertex 4.75 3.25 62.5
      vertex 5.25 3.25 62.5
    endloop
  endfacet
  facet normal 0 0 1
    outer loop
      vertex 5.25 5.25 62.5
      vertex 4.75 5.25 62.5
      vertex 5.25 3.25 62.5
    endloop
  endfacet
  facet normal 0 0 -1
    outer loop
      vertex 7.5 9.5 41
      vertex 7.5 10.5 41
      vertex 9.5 10.5 41
    endloop
  endfacet
  facet normal 0 0 -1
    outer loop
      vertex 7.5 9.5 41
      vertex 9.5 10.5 41
      vertex 9.5 9.5 41
    endloop
  endfacet
  facet normal 0 0 -1
    outer loop
      vertex 7.5 9.5 41
      vertex 10.5 7.5 41
      vertex 6.5 9.5 41
    endloop
  endfacet
  facet normal 0 0 -1
    outer loop
      vertex 9.5 9.5 41
      vertex 10.5 9.5 41
      vertex 10.5 7.5 41
    endloop
  endfacet
  facet normal 0 0 -1
    outer loop
      vertex 9.5 9.5 41
      vertex 10.5 7.5 41
      vertex 7.5 9.5 41
    endloop
  endfacet
  facet normal 0 0 -1
    outer loop
      vertex 10.5 7.5 41
      vertex 9.5 7.5 41
      vertex 6.5 9.5 41
    endloop
  endfacet
  facet normal 0 0 -1
    outer loop
      vertex 9.5 7.5 41
      vertex 9.5 6.5 41
      vertex 6.5 9.5 41
    endloop
  endfacet
  facet normal 0 0 -1
    outer loop
      vertex 9.5 6.5 41
      vertex 7.5 6.5 41
      vertex 7.5 7.5 41
    endloop
  endfacet
  facet normal 0 0 -1
    outer loop
      vertex 9.5 6.5 41
      vertex 7.5 7.5 41
      vertex 6.5 9.5 41
    endloop
  endfacet
  facet normal 0 0 -1
    outer loop
      vertex 6.5 7.5 41
      vertex 6.5 9.5 41
      vertex 7.5 7.5 41
    endloop
  endfacet
  facet normal 0 0 1
    outer loop
      vertex 6.5 10.5 46
      vertex 6.5 6.5 46
      vertex 7.5 6.5 46
    endloop
  endfacet
  facet normal 0 0 1
    outer loop
      vertex 7.5 10.5 46
      vertex 6.5 10.5 46
      vertex 7.5 6.5 46
    endloop
  endfacet
  facet normal 1 0 0
    outer loop
      vertex 7.5 6.5 46
      vertex 7.5 6.5 42
      vertex 7.5 10.5 42
    endloop
  endfacet
  facet normal 1 0 0
    outer loop
      vertex 7.5 10.5 46
      vertex 7.5 6.5 46
      vertex 7.5 10.5 42
    endloop
  endfacet
  facet normal 0 0 1
    outer loop
      vertex 7.5 10.5 42
      vertex 7.5 6.5 42
      vertex 10.5 6.5 42
    endloop
  endfacet
  facet normal 0 0 1
    outer loop
      vertex 10.5 10.5 42
      vertex 7.5 10.5 42
      vertex 10.5 6.5 42
    endloop
  endfacet
endsolid OpenSCAD_Model
